0
SECTION
2
HEADER
9
$ACADVER
1
AC1015
9
$INSBASE
10
0.0
20
0.0
30
0.0
9
$EXTMIN
10
0.0
20
0.0
30
0.0
9
$EXTMAX
10
100.0
20
100.0
30
0.0
0
ENDSEC
0
SECTION
2
TABLES
0
TABLE
2
LAYER
70
1
0
LAYER
2
0
70
0
62
7
6
CONTINUOUS
0
ENDTAB
0
ENDSEC
0
SECTION
2
ENTITIES
0
HATCH
5
100
100
AcDbEntity
8
0
62
2
100
AcDbHatch
10
0.0
20
0.0
30
0.0
210
0.0
220
0.0
230
1.0
2
SOLID
70
1
71
0
91
1
92
1
72
1
73
1
93
4
10
0.0
20
0.0
10
50.0
20
0.0
10
50.0
20
50.0
10
0.0
20
50.0
97
0
75
1
76
1
98
1
10
25.0
20
25.0
0
HATCH
5
101
100
AcDbEntity
8
0
62
3
100
AcDbHatch
10
0.0
20
0.0
30
0.0
210
0.0
220
0.0
230
1.0
2
SOLID
70
1
71
0
91
1
92
1
72
1
73
1
93
4
10
60.0
20
0.0
10
100.0
20
0.0
10
100.0
20
40.0
10
60.0
20
40.0
97
0
75
1
76
1
98
1
10
80.0
20
20.0
0
HATCH
5
102
100
AcDbEntity
8
0
62
4
100
AcDbHatch
10
0.0
20
0.0
30
0.0
210
0.0
220
0.0
230
1.0
2
SOLID
70
1
71
0
91
1
92
1
72
1
73
1
93
4
10
20.0
20
60.0
10
80.0
20
60.0
10
80.0
20
100.0
10
20.0
20
100.0
97
0
75
1
76
1
98
1
10
50.0
20
80.0
0
ENDSEC
0
SECTION
2
OBJECTS
0
ENDSEC
0
EOF
