0
SECTION
2
HEADER
0
ENDSEC
0
SECTION
2
ENTITIES
0
LINE
8
0
10
736.67
20
279.31
30
0
11
995.83
21
368.59
31
0
0
LINE
8
0
10
278.52
20
502.92
30
0
11
631.43
21
821.26
31
0
0
LINE
8
0
10
908.15
20
151.70
30
0
11
161.94
21
977.42
31
0
0
LINE
8
0
10
416.36
20
527.52
30
0
11
570.90
21
361.87
31
0
0
LINE
8
0
10
334.30
20
527.51
30
0
11
533.45
21
974.31
31
0
0
LINE
8
0
10
558.36
20
737.28
30
0
11
475.80
21
580.72
31
0
0
LINE
8
0
10
23.15
20
440.77
30
0
11
988.86
21
318.27
31
0
0
LINE
8
0
10
28.90
20
409.64
30
0
11
787.38
21
431.27
31
0
0
LINE
8
0
10
346.65
20
596.03
30
0
11
164.82
21
30.32
31
0
0
LINE
8
0
10
874.86
20
969.13
30
0
11
488.13
21
888.92
31
0
0
LINE
8
0
10
829.91
20
225.29
30
0
11
840.08
21
275.91
31
0
0
LINE
8
0
10
150.72
20
877.36
30
0
11
77.56
21
383.63
31
0
0
LINE
8
0
10
105.00
20
524.85
30
0
11
859.43
21
426.53
31
0
0
LINE
8
0
10
906.10
20
536.22
30
0
11
819.70
21
403.74
31
0
0
LINE
8
0
10
755.92
20
85.08
30
0
11
710.72
21
478.99
31
0
0
LINE
8
0
10
140.97
20
439.22
30
0
11
995.11
21
966.11
31
0
0
LINE
8
0
10
329.56
20
229.49
30
0
11
803.90
21
997.04
31
0
0
LINE
8
0
10
309.61
20
850.06
30
0
11
66.76
21
204.82
31
0
0
LINE
8
0
10
525.79
20
504.04
30
0
11
219.69
21
120.57
31
0
0
LINE
8
0
10
910.67
20
129.59
30
0
11
811.50
21
428.36
31
0
0
LINE
8
0
10
712.29
20
132.01
30
0
11
368.67
21
747.43
31
0
0
LINE
8
0
10
892.68
20
719.92
30
0
11
246.96
21
956.22
31
0
0
LINE
8
0
10
52.28
20
930.17
30
0
11
293.89
21
427.80
31
0
0
LINE
8
0
10
427.56
20
318.20
30
0
11
309.19
21
68.32
31
0
0
LINE
8
0
10
156.44
20
79.04
30
0
11
640.98
21
734.15
31
0
0
LINE
8
0
10
254.65
20
385.51
30
0
11
343.51
21
947.73
31
0
0
LINE
8
0
10
200.06
20
898.68
30
0
11
466.00
21
629.64
31
0
0
LINE
8
0
10
529.44
20
901.34
30
0
11
203.84
21
313.10
31
0
0
LINE
8
0
10
897.22
20
51.33
30
0
11
158.51
21
721.37
31
0
0
LINE
8
0
10
967.88
20
521.39
30
0
11
409.71
21
42.14
31
0
0
LINE
8
0
10
468.82
20
307.28
30
0
11
433.53
21
587.69
31
0
0
LINE
8
0
10
148.66
20
479.78
30
0
11
882.64
21
558.24
31
0
0
LINE
8
0
10
783.90
20
599.81
30
0
11
401.80
21
88.29
31
0
0
LINE
8
0
10
542.39
20
715.06
30
0
11
796.26
21
193.71
31
0
0
LINE
8
0
10
402.14
20
125.91
30
0
11
939.96
21
527.39
31
0
0
LINE
8
0
10
793.19
20
683.76
30
0
11
841.60
21
591.15
31
0
0
LINE
8
0
10
2.69
20
386.09
30
0
11
379.34
21
192.24
31
0
0
LINE
8
0
10
208.97
20
946.63
30
0
11
510.34
21
313.59
31
0
0
LINE
8
0
10
709.48
20
426.09
30
0
11
189.39
21
33.11
31
0
0
LINE
8
0
10
463.68
20
592.92
30
0
11
611.97
21
716.09
31
0
0
LINE
8
0
10
539.31
20
57.11
30
0
11
892.15
21
927.10
31
0
0
LINE
8
0
10
273.51
20
886.25
30
0
11
2.49
21
211.80
31
0
0
LINE
8
0
10
665.33
20
181.16
30
0
11
76.86
21
116.59
31
0
0
LINE
8
0
10
784.90
20
260.73
30
0
11
435.14
21
657.46
31
0
0
LINE
8
0
10
172.15
20
602.84
30
0
11
926.93
21
551.86
31
0
0
LINE
8
0
10
766.37
20
185.71
30
0
11
554.74
21
578.77
31
0
0
LINE
8
0
10
303.83
20
353.87
30
0
11
747.06
21
38.56
31
0
0
LINE
8
0
10
494.12
20
507.47
30
0
11
150.06
21
734.40
31
0
0
LINE
8
0
10
284.33
20
497.65
30
0
11
822.58
21
678.53
31
0
0
LINE
8
0
10
998.72
20
680.98
30
0
11
717.87
21
203.62
31
0
0
LINE
8
0
10
59.14
20
142.75
30
0
11
529.82
21
710.83
31
0
0
LINE
8
0
10
212.70
20
392.70
30
0
11
192.06
21
491.02
31
0
0
LINE
8
0
10
608.65
20
167.57
30
0
11
653.57
21
671.03
31
0
0
LINE
8
0
10
713.24
20
840.39
30
0
11
405.11
21
202.49
31
0
0
LINE
8
0
10
254.43
20
820.13
30
0
11
940.59
21
993.14
31
0
0
LINE
8
0
10
765.03
20
128.00
30
0
11
950.95
21
234.76
31
0
0
LINE
8
0
10
510.04
20
188.48
30
0
11
173.81
21
716.52
31
0
0
LINE
8
0
10
975.48
20
796.61
30
0
11
204.77
21
120.99
31
0
0
LINE
8
0
10
47.37
20
402.66
30
0
11
229.06
21
60.98
31
0
0
LINE
8
0
10
540.88
20
935.39
30
0
11
855.17
21
285.07
31
0
0
LINE
8
0
10
367.58
20
683.37
30
0
11
372.44
21
375.37
31
0
0
LINE
8
0
10
520.14
20
742.62
30
0
11
878.64
21
622.40
31
0
0
LINE
8
0
10
728.98
20
351.40
30
0
11
286.72
21
973.70
31
0
0
LINE
8
0
10
582.88
20
166.79
30
0
11
323.47
21
881.94
31
0
0
LINE
8
0
10
335.50
20
437.63
30
0
11
744.90
21
409.04
31
0
0
LINE
8
0
10
995.71
20
528.01
30
0
11
846.43
21
412.31
31
0
0
LINE
8
0
10
611.41
20
88.01
30
0
11
981.98
21
416.93
31
0
0
LINE
8
0
10
197.77
20
858.91
30
0
11
835.54
21
231.30
31
0
0
LINE
8
0
10
25.64
20
204.53
30
0
11
255.45
21
967.08
31
0
0
LINE
8
0
10
906.58
20
627.39
30
0
11
590.19
21
316.79
31
0
0
LINE
8
0
10
295.57
20
449.23
30
0
11
116.34
21
41.50
31
0
0
LINE
8
0
10
340.24
20
222.90
30
0
11
144.97
21
476.80
31
0
0
LINE
8
0
10
945.36
20
920.53
30
0
11
841.00
21
127.68
31
0
0
LINE
8
0
10
601.50
20
142.88
30
0
11
226.68
21
913.02
31
0
0
LINE
8
0
10
701.06
20
100.11
30
0
11
146.77
21
763.49
31
0
0
LINE
8
0
10
369.37
20
623.49
30
0
11
439.41
21
939.43
31
0
0
LINE
8
0
10
347.45
20
698.46
30
0
11
442.00
21
873.93
31
0
0
LINE
8
0
10
772.77
20
333.99
30
0
11
649.27
21
836.68
31
0
0
LINE
8
0
10
354.09
20
888.75
30
0
11
203.58
21
834.87
31
0
0
LINE
8
0
10
66.57
20
305.02
30
0
11
902.31
21
78.44
31
0
0
LINE
8
0
10
830.46
20
39.46
30
0
11
278.56
21
770.11
31
0
0
LINE
8
0
10
562.07
20
274.85
30
0
11
832.76
21
763.42
31
0
0
LINE
8
0
10
728.48
20
708.50
30
0
11
908.27
21
660.35
31
0
0
LINE
8
0
10
384.97
20
122.80
30
0
11
33.17
21
538.24
31
0
0
LINE
8
0
10
1.50
20
239.99
30
0
11
266.42
21
548.87
31
0
0
LINE
8
0
10
888.64
20
278.33
30
0
11
231.48
21
692.74
31
0
0
LINE
8
0
10
901.22
20
76.59
30
0
11
877.92
21
70.28
31
0
0
LINE
8
0
10
55.03
20
702.72
30
0
11
65.57
21
27.33
31
0
0
LINE
8
0
10
547.79
20
163.52
30
0
11
748.27
21
161.51
31
0
0
LINE
8
0
10
213.50
20
375.18
30
0
11
430.32
21
86.64
31
0
0
LINE
8
0
10
517.22
20
91.34
30
0
11
56.95
21
854.33
31
0
0
LINE
8
0
10
369.81
20
611.30
30
0
11
686.27
21
530.76
31
0
0
LINE
8
0
10
373.07
20
878.33
30
0
11
795.35
21
846.20
31
0
0
LINE
8
0
10
933.63
20
273.63
30
0
11
587.32
21
790.96
31
0
0
LINE
8
0
10
22.08
20
5.95
30
0
11
755.73
21
21.56
31
0
0
LINE
8
0
10
752.88
20
427.68
30
0
11
406.58
21
847.00
31
0
0
LINE
8
0
10
867.16
20
442.79
30
0
11
503.20
21
132.45
31
0
0
LINE
8
0
10
690.82
20
998.99
30
0
11
408.69
21
818.61
31
0
0
LINE
8
0
10
808.14
20
838.91
30
0
11
429.06
21
968.86
31
0
0
LINE
8
0
10
89.27
20
943.29
30
0
11
505.19
21
702.52
31
0
0
LINE
8
0
10
3.23
20
995.96
30
0
11
809.49
21
13.05
31
0
0
LINE
8
0
10
427.94
20
596.15
30
0
11
675.75
21
320.81
31
0
0
LINE
8
0
10
899.82
20
713.67
30
0
11
359.23
21
776.02
31
0
0
LINE
8
0
10
801.55
20
623.52
30
0
11
482.62
21
1.32
31
0
0
LINE
8
0
10
890.80
20
126.76
30
0
11
958.58
21
77.55
31
0
0
LINE
8
0
10
763.01
20
29.45
30
0
11
122.15
21
249.19
31
0
0
LINE
8
0
10
640.07
20
74.93
30
0
11
182.60
21
885.61
31
0
0
LINE
8
0
10
860.80
20
546.18
30
0
11
79.65
21
670.93
31
0
0
LINE
8
0
10
966.60
20
61.08
30
0
11
575.71
21
584.41
31
0
0
LINE
8
0
10
832.09
20
694.86
30
0
11
102.39
21
914.45
31
0
0
LINE
8
0
10
343.04
20
198.09
30
0
11
664.16
21
462.58
31
0
0
LINE
8
0
10
459.76
20
219.70
30
0
11
894.86
21
360.74
31
0
0
LINE
8
0
10
272.71
20
801.08
30
0
11
456.60
21
702.44
31
0
0
LINE
8
0
10
766.78
20
727.19
30
0
11
991.07
21
574.31
31
0
0
LINE
8
0
10
133.33
20
980.18
30
0
11
32.19
21
61.83
31
0
0
LINE
8
0
10
47.00
20
423.13
30
0
11
120.11
21
424.82
31
0
0
LINE
8
0
10
210.63
20
943.30
30
0
11
715.29
21
12.51
31
0
0
LINE
8
0
10
814.86
20
659.58
30
0
11
393.13
21
822.99
31
0
0
LINE
8
0
10
546.99
20
235.50
30
0
11
596.05
21
558.63
31
0
0
LINE
8
0
10
491.34
20
872.41
30
0
11
771.93
21
972.63
31
0
0
LINE
8
0
10
162.42
20
708.14
30
0
11
628.76
21
494.59
31
0
0
LINE
8
0
10
992.08
20
689.01
30
0
11
684.07
21
970.74
31
0
0
LINE
8
0
10
625.19
20
802.18
30
0
11
685.90
21
152.53
31
0
0
LINE
8
0
10
695.04
20
550.02
30
0
11
903.07
21
566.31
31
0
0
LINE
8
0
10
987.57
20
774.69
30
0
11
112.09
21
583.25
31
0
0
LINE
8
0
10
332.62
20
487.80
30
0
11
718.45
21
428.92
31
0
0
LINE
8
0
10
257.68
20
213.56
30
0
11
119.67
21
809.14
31
0
0
LINE
8
0
10
313.19
20
438.85
30
0
11
618.86
21
915.65
31
0
0
LINE
8
0
10
104.18
20
716.91
30
0
11
948.43
21
377.65
31
0
0
LINE
8
0
10
354.84
20
320.59
30
0
11
378.71
21
673.93
31
0
0
LINE
8
0
10
317.94
20
311.99
30
0
11
481.36
21
635.51
31
0
0
LINE
8
0
10
93.62
20
949.28
30
0
11
98.14
21
333.16
31
0
0
LINE
8
0
10
446.52
20
257.34
30
0
11
973.72
21
778.30
31
0
0
LINE
8
0
10
762.65
20
400.05
30
0
11
195.74
21
969.42
31
0
0
LINE
8
0
10
150.07
20
80.65
30
0
11
940.05
21
986.69
31
0
0
LINE
8
0
10
440.04
20
550.44
30
0
11
872.23
21
934.72
31
0
0
LINE
8
0
10
372.87
20
826.72
30
0
11
387.91
21
45.06
31
0
0
LINE
8
0
10
473.35
20
106.33
30
0
11
445.15
21
59.76
31
0
0
LINE
8
0
10
604.57
20
720.51
30
0
11
201.55
21
504.83
31
0
0
LINE
8
0
10
785.90
20
14.68
30
0
11
75.97
21
30.89
31
0
0
LINE
8
0
10
21.79
20
303.77
30
0
11
785.75
21
747.33
31
0
0
LINE
8
0
10
477.69
20
818.13
30
0
11
347.48
21
832.44
31
0
0
LINE
8
0
10
64.00
20
506.18
30
0
11
772.86
21
509.86
31
0
0
LINE
8
0
10
504.21
20
168.24
30
0
11
936.77
21
252.42
31
0
0
LINE
8
0
10
784.76
20
144.68
30
0
11
250.37
21
804.79
31
0
0
LINE
8
0
10
623.63
20
233.32
30
0
11
961.24
21
460.61
31
0
0
LINE
8
0
10
993.30
20
32.89
30
0
11
55.94
21
823.19
31
0
0
LINE
8
0
10
780.55
20
589.39
30
0
11
529.24
21
727.80
31
0
0
LINE
8
0
10
93.58
20
22.12
30
0
11
850.13
21
881.54
31
0
0
LINE
8
0
10
817.14
20
666.21
30
0
11
488.94
21
131.16
31
0
0
LINE
8
0
10
519.95
20
413.68
30
0
11
442.51
21
105.35
31
0
0
LINE
8
0
10
872.17
20
841.63
30
0
11
175.03
21
82.84
31
0
0
LINE
8
0
10
639.27
20
816.16
30
0
11
231.91
21
775.21
31
0
0
LINE
8
0
10
724.05
20
664.40
30
0
11
600.36
21
306.39
31
0
0
LINE
8
0
10
705.37
20
691.38
30
0
11
102.22
21
104.20
31
0
0
LINE
8
0
10
310.37
20
503.84
30
0
11
140.88
21
964.41
31
0
0
LINE
8
0
10
465.72
20
865.18
30
0
11
199.37
21
500.00
31
0
0
LINE
8
0
10
690.94
20
656.04
30
0
11
587.19
21
343.75
31
0
0
LINE
8
0
10
447.06
20
67.46
30
0
11
414.97
21
475.64
31
0
0
LINE
8
0
10
932.43
20
580.32
30
0
11
87.52
21
34.65
31
0
0
LINE
8
0
10
81.80
20
793.76
30
0
11
452.70
21
856.45
31
0
0
LINE
8
0
10
230.76
20
47.46
30
0
11
324.22
21
17.16
31
0
0
LINE
8
0
10
131.63
20
818.78
30
0
11
589.30
21
132.55
31
0
0
LINE
8
0
10
185.24
20
695.15
30
0
11
309.56
21
323.96
31
0
0
LINE
8
0
10
642.36
20
806.35
30
0
11
258.64
21
274.63
31
0
0
LINE
8
0
10
347.66
20
696.39
30
0
11
20.97
21
243.92
31
0
0
LINE
8
0
10
401.18
20
414.24
30
0
11
289.73
21
387.97
31
0
0
LINE
8
0
10
625.81
20
108.11
30
0
11
317.91
21
439.90
31
0
0
LINE
8
0
10
79.35
20
584.96
30
0
11
302.27
21
739.42
31
0
0
LINE
8
0
10
452.51
20
954.92
30
0
11
894.57
21
705.46
31
0
0
LINE
8
0
10
735.31
20
164.13
30
0
11
830.59
21
13.78
31
0
0
LINE
8
0
10
890.45
20
563.34
30
0
11
966.46
21
96.63
31
0
0
LINE
8
0
10
783.52
20
872.94
30
0
11
333.81
21
631.66
31
0
0
LINE
8
0
10
833.68
20
805.70
30
0
11
734.95
21
73.04
31
0
0
LINE
8
0
10
675.28
20
645.40
30
0
11
385.89
21
619.94
31
0
0
LINE
8
0
10
836.05
20
538.08
30
0
11
565.32
21
569.84
31
0
0
LINE
8
0
10
856.71
20
949.13
30
0
11
36.96
21
201.45
31
0
0
LINE
8
0
10
994.16
20
571.80
30
0
11
576.87
21
174.65
31
0
0
LINE
8
0
10
724.45
20
948.71
30
0
11
573.32
21
484.91
31
0
0
LINE
8
0
10
316.44
20
671.15
30
0
11
837.21
21
798.93
31
0
0
LINE
8
0
10
363.38
20
1.48
30
0
11
420.48
21
387.76
31
0
0
LINE
8
0
10
501.27
20
458.85
30
0
11
245.03
21
318.41
31
0
0
LINE
8
0
10
338.43
20
846.32
30
0
11
179.50
21
632.22
31
0
0
LINE
8
0
10
564.65
20
373.79
30
0
11
69.97
21
28.22
31
0
0
LINE
8
0
10
806.88
20
575.36
30
0
11
192.10
21
383.08
31
0
0
LINE
8
0
10
578.24
20
19.72
30
0
11
164.16
21
802.74
31
0
0
LINE
8
0
10
238.71
20
502.24
30
0
11
842.82
21
19.50
31
0
0
LINE
8
0
10
687.06
20
860.10
30
0
11
380.19
21
253.76
31
0
0
LINE
8
0
10
506.96
20
717.44
30
0
11
21.19
21
985.79
31
0
0
LINE
8
0
10
40.65
20
586.15
30
0
11
593.07
21
224.72
31
0
0
LINE
8
0
10
608.92
20
701.44
30
0
11
712.86
21
124.33
31
0
0
LINE
8
0
10
730.98
20
330.64
30
0
11
283.47
21
980.37
31
0
0
LINE
8
0
10
2.17
20
52.11
30
0
11
756.67
21
331.82
31
0
0
LINE
8
0
10
212.01
20
390.52
30
0
11
213.51
21
900.47
31
0
0
LINE
8
0
10
645.98
20
480.35
30
0
11
460.65
21
864.31
31
0
0
LINE
8
0
10
599.86
20
711.30
30
0
11
621.78
21
753.58
31
0
0
LINE
8
0
10
93.22
20
883.76
30
0
11
213.92
21
700.64
31
0
0
LINE
8
0
10
945.41
20
211.93
30
0
11
172.89
21
436.71
31
0
0
LINE
8
0
10
933.44
20
433.16
30
0
11
993.33
21
510.48
31
0
0
LINE
8
0
10
616.50
20
690.88
30
0
11
694.95
21
552.18
31
0
0
LINE
8
0
10
833.92
20
362.18
30
0
11
853.97
21
130.50
31
0
0
LINE
8
0
10
273.30
20
49.64
30
0
11
242.71
21
754.40
31
0
0
LINE
8
0
10
434.87
20
203.55
30
0
11
163.32
21
296.93
31
0
0
LINE
8
0
10
795.00
20
722.70
30
0
11
251.42
21
337.23
31
0
0
LINE
8
0
10
270.99
20
709.88
30
0
11
151.75
21
453.95
31
0
0
LINE
8
0
10
486.61
20
711.67
30
0
11
124.96
21
773.72
31
0
0
LINE
8
0
10
911.74
20
876.82
30
0
11
638.55
21
326.21
31
0
0
LINE
8
0
10
911.74
20
822.17
30
0
11
367.01
21
263.62
31
0
0
LINE
8
0
10
138.89
20
497.13
30
0
11
702.12
21
673.88
31
0
0
LINE
8
0
10
323.49
20
477.54
30
0
11
257.60
21
184.80
31
0
0
LINE
8
0
10
131.37
20
832.37
30
0
11
47.12
21
164.22
31
0
0
LINE
8
0
10
856.56
20
335.14
30
0
11
43.57
21
218.71
31
0
0
LINE
8
0
10
233.93
20
461.39
30
0
11
229.73
21
785.47
31
0
0
LINE
8
0
10
735.55
20
880.95
30
0
11
344.18
21
338.52
31
0
0
LINE
8
0
10
397.32
20
366.34
30
0
11
88.61
21
299.33
31
0
0
LINE
8
0
10
404.91
20
543.27
30
0
11
783.68
21
626.02
31
0
0
LINE
8
0
10
37.02
20
835.97
30
0
11
706.66
21
898.28
31
0
0
LINE
8
0
10
575.08
20
633.59
30
0
11
564.12
21
88.82
31
0
0
LINE
8
0
10
615.42
20
987.41
30
0
11
335.64
21
843.42
31
0
0
LINE
8
0
10
735.41
20
470.63
30
0
11
899.39
21
938.48
31
0
0
LINE
8
0
10
303.83
20
589.66
30
0
11
716.68
21
767.46
31
0
0
LINE
8
0
10
153.58
20
992.59
30
0
11
943.24
21
690.42
31
0
0
LINE
8
0
10
149.63
20
979.75
30
0
11
564.72
21
830.72
31
0
0
LINE
8
0
10
935.63
20
494.40
30
0
11
130.52
21
520.67
31
0
0
LINE
8
0
10
654.85
20
153.89
30
0
11
602.71
21
219.33
31
0
0
LINE
8
0
10
269.94
20
653.22
30
0
11
241.11
21
550.80
31
0
0
LINE
8
0
10
615.62
20
666.85
30
0
11
633.94
21
797.36
31
0
0
LINE
8
0
10
73.66
20
848.76
30
0
11
227.33
21
470.14
31
0
0
LINE
8
0
10
329.77
20
469.08
30
0
11
892.48
21
723.72
31
0
0
LINE
8
0
10
44.58
20
611.89
30
0
11
720.14
21
584.57
31
0
0
LINE
8
0
10
38.39
20
37.61
30
0
11
49.72
21
908.09
31
0
0
LINE
8
0
10
126.07
20
870.61
30
0
11
627.44
21
475.73
31
0
0
LINE
8
0
10
280.69
20
587.03
30
0
11
538.15
21
382.36
31
0
0
LINE
8
0
10
771.90
20
832.60
30
0
11
587.38
21
936.45
31
0
0
LINE
8
0
10
486.42
20
18.83
30
0
11
1.84
21
597.14
31
0
0
LINE
8
0
10
861.03
20
609.31
30
0
11
472.90
21
259.32
31
0
0
LINE
8
0
10
376.56
20
874.13
30
0
11
27.73
21
673.13
31
0
0
LINE
8
0
10
822.75
20
247.14
30
0
11
148.99
21
444.30
31
0
0
LINE
8
0
10
111.25
20
721.22
30
0
11
198.89
21
562.74
31
0
0
LINE
8
0
10
523.39
20
562.50
30
0
11
454.38
21
866.55
31
0
0
LINE
8
0
10
859.92
20
314.29
30
0
11
720.13
21
734.29
31
0
0
LINE
8
0
10
549.70
20
145.65
30
0
11
703.13
21
538.82
31
0
0
LINE
8
0
10
482.72
20
395.20
30
0
11
548.42
21
32.28
31
0
0
LINE
8
0
10
242.27
20
729.18
30
0
11
206.99
21
257.79
31
0
0
LINE
8
0
10
11.95
20
398.06
30
0
11
926.70
21
868.26
31
0
0
LINE
8
0
10
867.99
20
261.42
30
0
11
410.67
21
310.26
31
0
0
LINE
8
0
10
712.77
20
125.04
30
0
11
351.73
21
687.83
31
0
0
LINE
8
0
10
150.28
20
684.15
30
0
11
973.29
21
237.88
31
0
0
LINE
8
0
10
713.38
20
223.72
30
0
11
860.93
21
513.43
31
0
0
LINE
8
0
10
766.33
20
716.56
30
0
11
404.78
21
412.26
31
0
0
LINE
8
0
10
507.91
20
167.75
30
0
11
974.41
21
662.42
31
0
0
LINE
8
0
10
847.13
20
370.92
30
0
11
941.43
21
657.98
31
0
0
LINE
8
0
10
51.86
20
613.01
30
0
11
366.56
21
524.72
31
0
0
LINE
8
0
10
104.10
20
159.93
30
0
11
944.21
21
702.32
31
0
0
LINE
8
0
10
335.09
20
11.87
30
0
11
873.61
21
397.41
31
0
0
LINE
8
0
10
936.23
20
785.91
30
0
11
805.51
21
505.19
31
0
0
LINE
8
0
10
397.15
20
671.92
30
0
11
351.79
21
181.51
31
0
0
LINE
8
0
10
263.49
20
398.28
30
0
11
568.65
21
757.75
31
0
0
LINE
8
0
10
690.72
20
633.90
30
0
11
675.19
21
953.12
31
0
0
LINE
8
0
10
460.28
20
41.38
30
0
11
958.52
21
626.04
31
0
0
LINE
8
0
10
282.90
20
984.18
30
0
11
688.65
21
858.35
31
0
0
LINE
8
0
10
202.85
20
393.66
30
0
11
873.92
21
674.54
31
0
0
LINE
8
0
10
191.14
20
135.38
30
0
11
641.65
21
865.43
31
0
0
LINE
8
0
10
523.03
20
705.84
30
0
11
289.64
21
655.75
31
0
0
LINE
8
0
10
486.02
20
487.79
30
0
11
328.27
21
99.69
31
0
0
LINE
8
0
10
266.16
20
812.02
30
0
11
355.64
21
986.25
31
0
0
LINE
8
0
10
346.03
20
831.37
30
0
11
740.96
21
756.36
31
0
0
LINE
8
0
10
52.22
20
316.58
30
0
11
687.05
21
682.92
31
0
0
LINE
8
0
10
294.75
20
644.52
30
0
11
182.19
21
516.39
31
0
0
LINE
8
0
10
225.46
20
679.70
30
0
11
788.14
21
305.84
31
0
0
LINE
8
0
10
75.28
20
951.63
30
0
11
228.28
21
406.39
31
0
0
LINE
8
0
10
242.38
20
14.46
30
0
11
21.81
21
940.50
31
0
0
LINE
8
0
10
575.27
20
723.53
30
0
11
821.83
21
337.59
31
0
0
LINE
8
0
10
414.55
20
943.61
30
0
11
718.90
21
754.81
31
0
0
LINE
8
0
10
658.73
20
36.23
30
0
11
227.72
21
599.80
31
0
0
LINE
8
0
10
343.03
20
257.02
30
0
11
479.51
21
878.74
31
0
0
LINE
8
0
10
126.53
20
136.90
30
0
11
195.44
21
399.74
31
0
0
LINE
8
0
10
726.60
20
58.64
30
0
11
858.25
21
151.09
31
0
0
LINE
8
0
10
438.36
20
49.00
30
0
11
295.61
21
199.57
31
0
0
LINE
8
0
10
400.66
20
353.23
30
0
11
936.55
21
853.89
31
0
0
LINE
8
0
10
82.88
20
245.16
30
0
11
865.50
21
880.43
31
0
0
LINE
8
0
10
629.78
20
711.29
30
0
11
58.84
21
232.30
31
0
0
LINE
8
0
10
581.72
20
632.53
30
0
11
888.89
21
182.83
31
0
0
LINE
8
0
10
570.28
20
314.57
30
0
11
560.88
21
982.14
31
0
0
LINE
8
0
10
162.19
20
939.63
30
0
11
6.31
21
204.75
31
0
0
LINE
8
0
10
426.84
20
186.67
30
0
11
586.32
21
313.71
31
0
0
LINE
8
0
10
916.10
20
863.37
30
0
11
760.62
21
846.24
31
0
0
LINE
8
0
10
537.36
20
220.42
30
0
11
750.08
21
223.57
31
0
0
LINE
8
0
10
515.66
20
579.54
30
0
11
558.73
21
343.93
31
0
0
LINE
8
0
10
504.25
20
678.79
30
0
11
119.60
21
750.15
31
0
0
LINE
8
0
10
2.51
20
863.47
30
0
11
610.74
21
364.84
31
0
0
LINE
8
0
10
640.47
20
243.30
30
0
11
857.58
21
179.60
31
0
0
LINE
8
0
10
220.72
20
548.28
30
0
11
445.72
21
657.84
31
0
0
LINE
8
0
10
996.48
20
964.06
30
0
11
879.47
21
686.75
31
0
0
LINE
8
0
10
618.95
20
276.27
30
0
11
370.23
21
783.60
31
0
0
LINE
8
0
10
439.72
20
382.16
30
0
11
816.45
21
661.78
31
0
0
LINE
8
0
10
815.49
20
311.05
30
0
11
859.18
21
225.60
31
0
0
LINE
8
0
10
382.60
20
2.60
30
0
11
229.12
21
270.74
31
0
0
LINE
8
0
10
762.11
20
967.18
30
0
11
281.24
21
142.17
31
0
0
LINE
8
0
10
801.07
20
354.98
30
0
11
180.81
21
299.75
31
0
0
LINE
8
0
10
261.98
20
178.65
30
0
11
948.44
21
851.43
31
0
0
LINE
8
0
10
359.60
20
110.50
30
0
11
248.27
21
833.62
31
0
0
LINE
8
0
10
122.37
20
847.46
30
0
11
878.19
21
17.61
31
0
0
LINE
8
0
10
644.17
20
222.45
30
0
11
199.37
21
210.59
31
0
0
LINE
8
0
10
350.79
20
808.11
30
0
11
189.02
21
114.15
31
0
0
LINE
8
0
10
968.98
20
377.07
30
0
11
759.56
21
550.17
31
0
0
LINE
8
0
10
999.11
20
638.84
30
0
11
143.21
21
342.42
31
0
0
LINE
8
0
10
328.63
20
739.56
30
0
11
703.85
21
649.98
31
0
0
LINE
8
0
10
455.84
20
547.60
30
0
11
912.55
21
883.73
31
0
0
LINE
8
0
10
280.63
20
233.91
30
0
11
813.42
21
796.30
31
0
0
LINE
8
0
10
808.18
20
901.92
30
0
11
817.64
21
914.91
31
0
0
LINE
8
0
10
93.09
20
292.25
30
0
11
898.34
21
893.99
31
0
0
LINE
8
0
10
31.13
20
806.34
30
0
11
180.71
21
957.05
31
0
0
LINE
8
0
10
669.86
20
801.47
30
0
11
924.61
21
144.79
31
0
0
LINE
8
0
10
884.73
20
369.10
30
0
11
553.05
21
123.06
31
0
0
LINE
8
0
10
585.03
20
571.32
30
0
11
205.38
21
572.85
31
0
0
LINE
8
0
10
479.11
20
885.87
30
0
11
313.50
21
828.67
31
0
0
LINE
8
0
10
695.38
20
686.37
30
0
11
165.11
21
47.11
31
0
0
LINE
8
0
10
623.11
20
754.72
30
0
11
204.65
21
156.20
31
0
0
LINE
8
0
10
936.72
20
299.15
30
0
11
171.78
21
116.63
31
0
0
LINE
8
0
10
979.52
20
19.84
30
0
11
747.97
21
812.99
31
0
0
LINE
8
0
10
709.86
20
841.94
30
0
11
654.21
21
504.79
31
0
0
LINE
8
0
10
717.12
20
872.04
30
0
11
325.20
21
664.79
31
0
0
LINE
8
0
10
952.13
20
56.30
30
0
11
119.57
21
761.44
31
0
0
LINE
8
0
10
141.68
20
825.43
30
0
11
987.18
21
281.37
31
0
0
LINE
8
0
10
511.17
20
170.89
30
0
11
894.74
21
906.24
31
0
0
LINE
8
0
10
895.30
20
334.45
30
0
11
609.19
21
264.94
31
0
0
LINE
8
0
10
372.22
20
72.17
30
0
11
477.48
21
934.42
31
0
0
LINE
8
0
10
98.01
20
275.95
30
0
11
503.67
21
349.62
31
0
0
LINE
8
0
10
485.33
20
690.27
30
0
11
519.33
21
950.14
31
0
0
LINE
8
0
10
816.81
20
991.67
30
0
11
431.97
21
37.99
31
0
0
LINE
8
0
10
274.56
20
738.63
30
0
11
399.95
21
127.86
31
0
0
LINE
8
0
10
637.88
20
349.76
30
0
11
553.93
21
16.33
31
0
0
LINE
8
0
10
244.69
20
654.85
30
0
11
917.73
21
616.93
31
0
0
LINE
8
0
10
438.44
20
62.55
30
0
11
848.70
21
347.51
31
0
0
LINE
8
0
10
99.66
20
830.75
30
0
11
606.30
21
960.19
31
0
0
LINE
8
0
10
6.22
20
324.99
30
0
11
205.91
21
619.08
31
0
0
LINE
8
0
10
227.96
20
422.78
30
0
11
2.14
21
810.18
31
0
0
LINE
8
0
10
717.84
20
52.67
30
0
11
502.16
21
714.37
31
0
0
LINE
8
0
10
722.39
20
427.64
30
0
11
191.43
21
629.08
31
0
0
LINE
8
0
10
983.65
20
531.61
30
0
11
250.32
21
529.56
31
0
0
LINE
8
0
10
515.83
20
730.81
30
0
11
890.89
21
243.82
31
0
0
LINE
8
0
10
88.86
20
664.96
30
0
11
281.86
21
214.38
31
0
0
LINE
8
0
10
371.93
20
889.17
30
0
11
927.86
21
807.04
31
0
0
LINE
8
0
10
612.35
20
914.06
30
0
11
724.75
21
786.16
31
0
0
LINE
8
0
10
6.57
20
703.80
30
0
11
871.84
21
381.74
31
0
0
LINE
8
0
10
494.51
20
751.58
30
0
11
179.81
21
534.63
31
0
0
LINE
8
0
10
999.12
20
901.91
30
0
11
222.41
21
682.77
31
0
0
LINE
8
0
10
982.75
20
7.00
30
0
11
250.38
21
906.24
31
0
0
LINE
8
0
10
959.53
20
427.03
30
0
11
457.26
21
898.26
31
0
0
LINE
8
0
10
861.12
20
576.88
30
0
11
224.93
21
75.23
31
0
0
LINE
8
0
10
972.43
20
321.90
30
0
11
439.12
21
384.11
31
0
0
LINE
8
0
10
56.27
20
345.94
30
0
11
28.04
21
429.11
31
0
0
LINE
8
0
10
371.95
20
258.49
30
0
11
89.80
21
710.48
31
0
0
LINE
8
0
10
859.47
20
502.79
30
0
11
393.15
21
207.03
31
0
0
LINE
8
0
10
720.21
20
91.08
30
0
11
409.50
21
786.68
31
0
0
LINE
8
0
10
33.12
20
173.56
30
0
11
177.64
21
542.46
31
0
0
LINE
8
0
10
533.84
20
616.81
30
0
11
616.41
21
327.06
31
0
0
LINE
8
0
10
393.46
20
375.23
30
0
11
406.67
21
298.65
31
0
0
LINE
8
0
10
209.20
20
266.80
30
0
11
990.76
21
233.97
31
0
0
LINE
8
0
10
318.44
20
442.09
30
0
11
772.40
21
56.55
31
0
0
LINE
8
0
10
533.90
20
689.96
30
0
11
953.94
21
166.82
31
0
0
LINE
8
0
10
989.93
20
854.86
30
0
11
404.73
21
519.84
31
0
0
LINE
8
0
10
906.40
20
398.52
30
0
11
605.10
21
546.82
31
0
0
LINE
8
0
10
75.51
20
956.54
30
0
11
529.73
21
679.48
31
0
0
LINE
8
0
10
548.58
20
885.29
30
0
11
933.53
21
576.20
31
0
0
LINE
8
0
10
273.04
20
622.75
30
0
11
93.37
21
971.31
31
0
0
LINE
8
0
10
480.37
20
900.06
30
0
11
667.92
21
485.87
31
0
0
LINE
8
0
10
430.53
20
24.68
30
0
11
343.52
21
296.88
31
0
0
LINE
8
0
10
21.56
20
991.98
30
0
11
747.26
21
446.94
31
0
0
LINE
8
0
10
751.55
20
628.01
30
0
11
49.72
21
821.00
31
0
0
LINE
8
0
10
440.08
20
48.58
30
0
11
847.90
21
614.09
31
0
0
LINE
8
0
10
713.66
20
53.61
30
0
11
313.33
21
504.23
31
0
0
LINE
8
0
10
841.18
20
323.19
30
0
11
916.99
21
914.07
31
0
0
LINE
8
0
10
139.12
20
609.24
30
0
11
777.29
21
743.23
31
0
0
LINE
8
0
10
946.16
20
239.44
30
0
11
619.72
21
655.20
31
0
0
LINE
8
0
10
797.76
20
930.38
30
0
11
617.56
21
206.12
31
0
0
LINE
8
0
10
877.13
20
885.03
30
0
11
527.67
21
809.91
31
0
0
LINE
8
0
10
543.05
20
691.66
30
0
11
516.32
21
112.33
31
0
0
LINE
8
0
10
180.56
20
70.05
30
0
11
484.50
21
842.33
31
0
0
LINE
8
0
10
782.28
20
835.11
30
0
11
572.91
21
853.58
31
0
0
LINE
8
0
10
91.06
20
74.47
30
0
11
989.98
21
76.92
31
0
0
LINE
8
0
10
408.24
20
464.57
30
0
11
809.28
21
730.86
31
0
0
LINE
8
0
10
317.15
20
867.69
30
0
11
49.22
21
590.81
31
0
0
LINE
8
0
10
307.80
20
472.92
30
0
11
248.00
21
446.73
31
0
0
LINE
8
0
10
583.14
20
50.26
30
0
11
971.81
21
94.32
31
0
0
LINE
8
0
10
392.51
20
572.69
30
0
11
626.22
21
37.52
31
0
0
LINE
8
0
10
635.80
20
775.82
30
0
11
915.51
21
353.96
31
0
0
LINE
8
0
10
402.92
20
665.80
30
0
11
151.41
21
911.81
31
0
0
LINE
8
0
10
340.96
20
870.79
30
0
11
148.28
21
387.63
31
0
0
LINE
8
0
10
28.27
20
344.63
30
0
11
176.12
21
752.64
31
0
0
LINE
8
0
10
676.18
20
378.36
30
0
11
248.34
21
687.75
31
0
0
LINE
8
0
10
769.43
20
416.65
30
0
11
515.08
21
83.48
31
0
0
LINE
8
0
10
968.71
20
792.93
30
0
11
798.34
21
219.84
31
0
0
LINE
8
0
10
677.80
20
849.25
30
0
11
227.10
21
133.64
31
0
0
LINE
8
0
10
437.39
20
291.23
30
0
11
122.01
21
536.96
31
0
0
LINE
8
0
10
808.11
20
545.69
30
0
11
842.15
21
38.01
31
0
0
LINE
8
0
10
402.86
20
778.18
30
0
11
972.60
21
660.13
31
0
0
LINE
8
0
10
192.98
20
363.21
30
0
11
843.75
21
44.58
31
0
0
LINE
8
0
10
218.87
20
460.67
30
0
11
878.81
21
803.49
31
0
0
LINE
8
0
10
611.78
20
79.73
30
0
11
451.90
21
383.04
31
0
0
LINE
8
0
10
354.62
20
100.82
30
0
11
250.81
21
45.38
31
0
0
LINE
8
0
10
426.32
20
942.36
30
0
11
0.76
21
416.77
31
0
0
LINE
8
0
10
14.94
20
585.44
30
0
11
432.02
21
300.43
31
0
0
LINE
8
0
10
536.86
20
816.40
30
0
11
536.47
21
215.57
31
0
0
LINE
8
0
10
700.82
20
224.61
30
0
11
814.67
21
844.59
31
0
0
LINE
8
0
10
174.31
20
618.01
30
0
11
695.02
21
685.76
31
0
0
LINE
8
0
10
446.97
20
858.95
30
0
11
651.08
21
898.76
31
0
0
LINE
8
0
10
79.63
20
962.61
30
0
11
79.01
21
72.91
31
0
0
LINE
8
0
10
49.23
20
48.49
30
0
11
10.36
21
409.84
31
0
0
LINE
8
0
10
472.58
20
870.47
30
0
11
146.55
21
65.40
31
0
0
LINE
8
0
10
895.86
20
314.48
30
0
11
244.86
21
316.08
31
0
0
LINE
8
0
10
898.59
20
366.83
30
0
11
115.09
21
705.65
31
0
0
LINE
8
0
10
830.32
20
54.09
30
0
11
653.50
21
995.53
31
0
0
LINE
8
0
10
115.83
20
668.07
30
0
11
429.21
21
570.51
31
0
0
LINE
8
0
10
581.76
20
537.80
30
0
11
309.07
21
125.40
31
0
0
LINE
8
0
10
666.45
20
107.47
30
0
11
572.71
21
912.73
31
0
0
LINE
8
0
10
48.24
20
936.66
30
0
11
911.03
21
394.07
31
0
0
LINE
8
0
10
496.13
20
221.44
30
0
11
691.64
21
374.11
31
0
0
LINE
8
0
10
691.63
20
773.65
30
0
11
142.86
21
80.35
31
0
0
LINE
8
0
10
172.49
20
939.62
30
0
11
87.57
21
70.03
31
0
0
LINE
8
0
10
231.76
20
74.86
30
0
11
676.56
21
281.96
31
0
0
LINE
8
0
10
789.24
20
158.72
30
0
11
741.13
21
181.53
31
0
0
LINE
8
0
10
582.79
20
485.32
30
0
11
493.40
21
269.62
31
0
0
LINE
8
0
10
677.49
20
613.05
30
0
11
988.41
21
963.86
31
0
0
LINE
8
0
10
735.59
20
285.96
30
0
11
725.76
21
619.96
31
0
0
LINE
8
0
10
640.66
20
935.14
30
0
11
547.75
21
239.63
31
0
0
LINE
8
0
10
920.64
20
714.20
30
0
11
738.30
21
971.49
31
0
0
LINE
8
0
10
614.70
20
446.89
30
0
11
276.50
21
352.79
31
0
0
LINE
8
0
10
107.87
20
118.56
30
0
11
677.33
21
982.66
31
0
0
LINE
8
0
10
34.97
20
504.43
30
0
11
150.49
21
925.98
31
0
0
LINE
8
0
10
341.24
20
146.09
30
0
11
867.54
21
446.77
31
0
0
LINE
8
0
10
918.32
20
138.30
30
0
11
695.48
21
346.50
31
0
0
LINE
8
0
10
260.87
20
661.02
30
0
11
730.92
21
311.41
31
0
0
LINE
8
0
10
295.02
20
700.84
30
0
11
560.71
21
283.72
31
0
0
LINE
8
0
10
710.46
20
17.16
30
0
11
724.13
21
496.61
31
0
0
LINE
8
0
10
361.60
20
234.10
30
0
11
39.55
21
397.76
31
0
0
LINE
8
0
10
890.39
20
418.94
30
0
11
394.85
21
924.31
31
0
0
LINE
8
0
10
94.05
20
579.28
30
0
11
609.53
21
443.09
31
0
0
LINE
8
0
10
176.29
20
337.17
30
0
11
127.17
21
797.60
31
0
0
LINE
8
0
10
878.04
20
857.10
30
0
11
427.31
21
617.39
31
0
0
LINE
8
0
10
682.21
20
579.75
30
0
11
884.07
21
160.64
31
0
0
LINE
8
0
10
863.10
20
853.83
30
0
11
983.17
21
720.24
31
0
0
LINE
8
0
10
150.63
20
864.07
30
0
11
419.58
21
829.36
31
0
0
LINE
8
0
10
649.56
20
148.80
30
0
11
197.21
21
385.59
31
0
0
LINE
8
0
10
523.88
20
259.75
30
0
11
291.35
21
120.85
31
0
0
LINE
8
0
10
358.38
20
227.89
30
0
11
299.06
21
344.98
31
0
0
LINE
8
0
10
381.27
20
327.13
30
0
11
791.09
21
546.53
31
0
0
LINE
8
0
10
451.10
20
698.58
30
0
11
614.14
21
331.29
31
0
0
LINE
8
0
10
661.68
20
9.99
30
0
11
101.17
21
329.28
31
0
0
LINE
8
0
10
546.68
20
588.25
30
0
11
587.23
21
750.85
31
0
0
LINE
8
0
10
398.53
20
688.44
30
0
11
508.93
21
62.88
31
0
0
LINE
8
0
10
938.01
20
356.46
30
0
11
583.77
21
689.20
31
0
0
LINE
8
0
10
52.25
20
757.28
30
0
11
254.61
21
654.19
31
0
0
LINE
8
0
10
185.16
20
519.46
30
0
11
624.87
21
758.85
31
0
0
LINE
8
0
10
839.52
20
635.14
30
0
11
735.04
21
2.13
31
0
0
LINE
8
0
10
201.00
20
595.63
30
0
11
417.48
21
884.31
31
0
0
LINE
8
0
10
177.35
20
951.29
30
0
11
197.39
21
268.61
31
0
0
LINE
8
0
10
156.54
20
920.34
30
0
11
818.32
21
708.17
31
0
0
LINE
8
0
10
873.82
20
860.19
30
0
11
323.74
21
198.94
31
0
0
LINE
8
0
10
506.14
20
923.77
30
0
11
620.65
21
698.51
31
0
0
LINE
8
0
10
676.92
20
595.95
30
0
11
519.13
21
881.27
31
0
0
LINE
8
0
10
907.26
20
354.68
30
0
11
569.10
21
293.20
31
0
0
LINE
8
0
10
452.60
20
461.35
30
0
11
854.75
21
800.11
31
0
0
LINE
8
0
10
849.29
20
987.72
30
0
11
535.39
21
213.06
31
0
0
LINE
8
0
10
407.11
20
988.60
30
0
11
528.30
21
29.97
31
0
0
LINE
8
0
10
86.01
20
837.37
30
0
11
469.67
21
814.88
31
0
0
LINE
8
0
10
848.67
20
754.04
30
0
11
321.69
21
480.25
31
0
0
LINE
8
0
10
607.52
20
771.14
30
0
11
374.84
21
509.99
31
0
0
LINE
8
0
10
62.16
20
748.14
30
0
11
781.20
21
377.58
31
0
0
LINE
8
0
10
969.68
20
929.63
30
0
11
490.49
21
855.02
31
0
0
LINE
8
0
10
662.87
20
343.83
30
0
11
233.81
21
851.81
31
0
0
LINE
8
0
10
150.31
20
718.59
30
0
11
354.35
21
444.35
31
0
0
LINE
8
0
10
933.79
20
315.81
30
0
11
963.28
21
494.29
31
0
0
LINE
8
0
10
731.57
20
565.29
30
0
11
495.24
21
498.78
31
0
0
LINE
8
0
10
21.57
20
586.63
30
0
11
490.79
21
644.47
31
0
0
LINE
8
0
10
768.71
20
774.11
30
0
11
496.04
21
785.44
31
0
0
LINE
8
0
10
87.30
20
661.71
30
0
11
517.73
21
660.88
31
0
0
LINE
8
0
10
481.05
20
346.59
30
0
11
411.23
21
182.32
31
0
0
LINE
8
0
10
159.91
20
786.63
30
0
11
607.69
21
634.79
31
0
0
LINE
8
0
10
830.76
20
112.42
30
0
11
809.89
21
767.92
31
0
0
LINE
8
0
10
836.12
20
999.46
30
0
11
855.64
21
349.30
31
0
0
LINE
8
0
10
9.72
20
776.42
30
0
11
956.03
21
395.07
31
0
0
LINE
8
0
10
443.00
20
931.89
30
0
11
953.66
21
2.10
31
0
0
LINE
8
0
10
601.97
20
92.50
30
0
11
106.17
21
229.20
31
0
0
LINE
8
0
10
719.49
20
990.13
30
0
11
476.87
21
45.49
31
0
0
LINE
8
0
10
856.96
20
582.50
30
0
11
895.04
21
292.82
31
0
0
LINE
8
0
10
678.03
20
893.27
30
0
11
301.45
21
496.13
31
0
0
LINE
8
0
10
216.38
20
908.63
30
0
11
333.28
21
473.67
31
0
0
LINE
8
0
10
580.20
20
61.54
30
0
11
756.60
21
484.59
31
0
0
LINE
8
0
10
660.51
20
720.69
30
0
11
495.75
21
329.26
31
0
0
LINE
8
0
10
280.58
20
965.94
30
0
11
831.92
21
512.03
31
0
0
LINE
8
0
10
19.45
20
303.69
30
0
11
115.68
21
537.29
31
0
0
LINE
8
0
10
945.42
20
338.54
30
0
11
350.75
21
581.45
31
0
0
LINE
8
0
10
154.61
20
167.32
30
0
11
860.00
21
480.83
31
0
0
LINE
8
0
10
667.64
20
4.39
30
0
11
433.17
21
972.17
31
0
0
LINE
8
0
10
205.96
20
365.92
30
0
11
706.16
21
930.47
31
0
0
LINE
8
0
10
440.94
20
935.78
30
0
11
124.81
21
341.38
31
0
0
LINE
8
0
10
429.00
20
133.38
30
0
11
376.34
21
328.98
31
0
0
LINE
8
0
10
27.47
20
753.86
30
0
11
938.05
21
497.24
31
0
0
LINE
8
0
10
273.04
20
361.35
30
0
11
855.70
21
987.07
31
0
0
LINE
8
0
10
220.95
20
483.96
30
0
11
48.61
21
152.06
31
0
0
LINE
8
0
10
154.54
20
848.16
30
0
11
377.16
21
27.96
31
0
0
LINE
8
0
10
872.15
20
111.74
30
0
11
609.90
21
983.80
31
0
0
LINE
8
0
10
240.32
20
640.27
30
0
11
447.97
21
667.95
31
0
0
LINE
8
0
10
523.27
20
206.47
30
0
11
984.96
21
708.81
31
0
0
LINE
8
0
10
864.16
20
108.05
30
0
11
293.58
21
703.58
31
0
0
LINE
8
0
10
270.45
20
4.41
30
0
11
351.72
21
591.45
31
0
0
LINE
8
0
10
396.45
20
43.37
30
0
11
825.43
21
907.51
31
0
0
LINE
8
0
10
341.11
20
63.79
30
0
11
687.20
21
694.50
31
0
0
LINE
8
0
10
623.94
20
324.82
30
0
11
768.36
21
0.65
31
0
0
LINE
8
0
10
945.09
20
812.48
30
0
11
144.71
21
475.05
31
0
0
LINE
8
0
10
142.12
20
189.65
30
0
11
587.97
21
982.97
31
0
0
LINE
8
0
10
461.61
20
954.89
30
0
11
393.23
21
21.47
31
0
0
LINE
8
0
10
211.28
20
545.48
30
0
11
216.38
21
560.93
31
0
0
LINE
8
0
10
856.61
20
261.09
30
0
11
901.30
21
151.68
31
0
0
LINE
8
0
10
447.17
20
531.62
30
0
11
440.48
21
500.40
31
0
0
LINE
8
0
10
158.36
20
357.74
30
0
11
529.18
21
106.33
31
0
0
LINE
8
0
10
790.10
20
794.29
30
0
11
134.77
21
139.09
31
0
0
LINE
8
0
10
101.10
20
382.81
30
0
11
890.30
21
970.50
31
0
0
LINE
8
0
10
876.22
20
464.12
30
0
11
958.22
21
217.95
31
0
0
LINE
8
0
10
343.01
20
908.33
30
0
11
563.26
21
495.86
31
0
0
LINE
8
0
10
319.64
20
636.90
30
0
11
526.08
21
461.41
31
0
0
LINE
8
0
10
288.37
20
319.95
30
0
11
457.29
21
974.66
31
0
0
LINE
8
0
10
136.32
20
110.72
30
0
11
643.51
21
713.14
31
0
0
LINE
8
0
10
519.45
20
498.87
30
0
11
913.41
21
434.25
31
0
0
LINE
8
0
10
6.29
20
476.39
30
0
11
417.61
21
651.60
31
0
0
LINE
8
0
10
984.13
20
587.89
30
0
11
521.88
21
622.02
31
0
0
LINE
8
0
10
547.06
20
308.93
30
0
11
11.85
21
965.57
31
0
0
LINE
8
0
10
860.92
20
721.47
30
0
11
854.73
21
523.21
31
0
0
LINE
8
0
10
938.38
20
835.86
30
0
11
912.60
21
598.83
31
0
0
LINE
8
0
10
433.69
20
606.05
30
0
11
986.49
21
553.64
31
0
0
LINE
8
0
10
106.25
20
661.08
30
0
11
395.22
21
300.27
31
0
0
LINE
8
0
10
898.95
20
230.50
30
0
11
509.66
21
338.52
31
0
0
LINE
8
0
10
682.51
20
198.13
30
0
11
85.70
21
413.58
31
0
0
LINE
8
0
10
381.28
20
959.18
30
0
11
491.28
21
123.12
31
0
0
LINE
8
0
10
278.53
20
595.30
30
0
11
320.88
21
254.04
31
0
0
LINE
8
0
10
214.82
20
700.25
30
0
11
550.72
21
866.63
31
0
0
LINE
8
0
10
211.27
20
108.49
30
0
11
397.12
21
871.10
31
0
0
LINE
8
0
10
586.85
20
84.75
30
0
11
51.01
21
780.24
31
0
0
LINE
8
0
10
116.41
20
970.61
30
0
11
210.65
21
438.46
31
0
0
LINE
8
0
10
496.26
20
199.81
30
0
11
141.38
21
394.32
31
0
0
LINE
8
0
10
283.09
20
129.64
30
0
11
647.10
21
824.36
31
0
0
LINE
8
0
10
981.82
20
468.31
30
0
11
797.21
21
133.04
31
0
0
LINE
8
0
10
590.96
20
28.52
30
0
11
414.46
21
177.48
31
0
0
LINE
8
0
10
546.36
20
910.08
30
0
11
928.91
21
763.63
31
0
0
LINE
8
0
10
793.17
20
473.92
30
0
11
71.43
21
72.13
31
0
0
LINE
8
0
10
930.08
20
954.11
30
0
11
157.78
21
59.98
31
0
0
LINE
8
0
10
933.39
20
160.63
30
0
11
60.59
21
355.72
31
0
0
LINE
8
0
10
632.01
20
452.67
30
0
11
139.80
21
629.70
31
0
0
LINE
8
0
10
89.84
20
195.22
30
0
11
581.44
21
193.47
31
0
0
LINE
8
0
10
642.62
20
862.11
30
0
11
692.17
21
937.71
31
0
0
LINE
8
0
10
806.27
20
723.05
30
0
11
491.20
21
471.88
31
0
0
LINE
8
0
10
509.71
20
775.02
30
0
11
402.20
21
277.02
31
0
0
LINE
8
0
10
962.72
20
742.25
30
0
11
737.29
21
898.57
31
0
0
LINE
8
0
10
445.06
20
259.87
30
0
11
424.04
21
408.05
31
0
0
LINE
8
0
10
85.15
20
485.06
30
0
11
671.21
21
502.64
31
0
0
LINE
8
0
10
552.71
20
282.06
30
0
11
747.54
21
524.64
31
0
0
LINE
8
0
10
83.39
20
466.27
30
0
11
784.03
21
219.56
31
0
0
LINE
8
0
10
638.87
20
144.32
30
0
11
288.19
21
679.49
31
0
0
LINE
8
0
10
34.82
20
38.56
30
0
11
260.58
21
812.28
31
0
0
LINE
8
0
10
933.70
20
951.80
30
0
11
498.40
21
389.24
31
0
0
LINE
8
0
10
761.03
20
427.02
30
0
11
620.98
21
744.35
31
0
0
LINE
8
0
10
3.66
20
80.44
30
0
11
644.85
21
813.98
31
0
0
LINE
8
0
10
472.54
20
21.35
30
0
11
556.86
21
992.19
31
0
0
LINE
8
0
10
998.90
20
637.19
30
0
11
334.22
21
699.88
31
0
0
LINE
8
0
10
94.74
20
582.64
30
0
11
605.06
21
692.96
31
0
0
LINE
8
0
10
392.21
20
676.42
30
0
11
241.21
21
999.53
31
0
0
LINE
8
0
10
800.60
20
659.83
30
0
11
837.42
21
486.40
31
0
0
LINE
8
0
10
212.35
20
793.57
30
0
11
68.18
21
290.10
31
0
0
LINE
8
0
10
981.84
20
527.35
30
0
11
453.18
21
37.93
31
0
0
LINE
8
0
10
988.62
20
630.06
30
0
11
285.28
21
87.57
31
0
0
LINE
8
0
10
718.46
20
545.23
30
0
11
559.54
21
926.60
31
0
0
LINE
8
0
10
161.55
20
760.58
30
0
11
288.54
21
178.69
31
0
0
LINE
8
0
10
315.84
20
10.84
30
0
11
917.26
21
738.02
31
0
0
LINE
8
0
10
894.90
20
582.86
30
0
11
609.19
21
993.44
31
0
0
LINE
8
0
10
438.77
20
801.57
30
0
11
789.37
21
956.84
31
0
0
LINE
8
0
10
988.82
20
129.46
30
0
11
983.70
21
516.68
31
0
0
LINE
8
0
10
841.58
20
535.40
30
0
11
7.39
21
867.78
31
0
0
LINE
8
0
10
89.56
20
292.85
30
0
11
300.84
21
899.72
31
0
0
LINE
8
0
10
734.35
20
280.22
30
0
11
184.16
21
431.98
31
0
0
LINE
8
0
10
368.44
20
155.57
30
0
11
640.12
21
91.97
31
0
0
LINE
8
0
10
318.56
20
592.35
30
0
11
918.50
21
682.67
31
0
0
LINE
8
0
10
146.26
20
638.27
30
0
11
960.18
21
365.16
31
0
0
LINE
8
0
10
292.42
20
175.19
30
0
11
997.47
21
431.27
31
0
0
LINE
8
0
10
728.91
20
633.25
30
0
11
574.67
21
944.27
31
0
0
LINE
8
0
10
809.50
20
576.01
30
0
11
254.62
21
500.95
31
0
0
LINE
8
0
10
365.82
20
6.65
30
0
11
531.22
21
681.94
31
0
0
LINE
8
0
10
885.23
20
242.59
30
0
11
601.57
21
543.09
31
0
0
LINE
8
0
10
939.62
20
51.63
30
0
11
566.14
21
481.31
31
0
0
LINE
8
0
10
9.48
20
104.55
30
0
11
375.04
21
130.83
31
0
0
LINE
8
0
10
873.34
20
672.37
30
0
11
914.53
21
220.63
31
0
0
LINE
8
0
10
876.89
20
296.87
30
0
11
645.00
21
679.51
31
0
0
LINE
8
0
10
737.88
20
218.31
30
0
11
511.97
21
726.59
31
0
0
LINE
8
0
10
910.78
20
517.17
30
0
11
889.34
21
128.27
31
0
0
LINE
8
0
10
136.89
20
101.46
30
0
11
476.17
21
148.27
31
0
0
LINE
8
0
10
486.78
20
717.88
30
0
11
22.69
21
683.94
31
0
0
LINE
8
0
10
762.91
20
946.40
30
0
11
551.82
21
497.70
31
0
0
LINE
8
0
10
439.52
20
141.38
30
0
11
91.88
21
656.25
31
0
0
LINE
8
0
10
549.67
20
376.01
30
0
11
406.03
21
893.94
31
0
0
LINE
8
0
10
868.89
20
59.27
30
0
11
390.13
21
246.21
31
0
0
LINE
8
0
10
41.75
20
877.74
30
0
11
774.70
21
430.97
31
0
0
LINE
8
0
10
291.59
20
716.92
30
0
11
420.09
21
333.74
31
0
0
LINE
8
0
10
58.61
20
689.39
30
0
11
807.69
21
149.49
31
0
0
LINE
8
0
10
968.84
20
495.17
30
0
11
200.55
21
510.11
31
0
0
LINE
8
0
10
850.92
20
531.87
30
0
11
743.37
21
38.84
31
0
0
LINE
8
0
10
948.74
20
443.48
30
0
11
499.60
21
894.79
31
0
0
LINE
8
0
10
499.21
20
709.06
30
0
11
207.69
21
799.66
31
0
0
LINE
8
0
10
858.20
20
924.66
30
0
11
572.02
21
936.13
31
0
0
LINE
8
0
10
591.90
20
852.80
30
0
11
93.15
21
138.31
31
0
0
LINE
8
0
10
589.43
20
93.82
30
0
11
685.48
21
364.58
31
0
0
LINE
8
0
10
331.54
20
529.09
30
0
11
370.91
21
104.43
31
0
0
LINE
8
0
10
99.53
20
76.10
30
0
11
368.89
21
265.14
31
0
0
LINE
8
0
10
586.74
20
65.81
30
0
11
362.07
21
524.85
31
0
0
LINE
8
0
10
940.49
20
728.11
30
0
11
451.11
21
957.14
31
0
0
LINE
8
0
10
788.95
20
44.76
30
0
11
960.40
21
678.07
31
0
0
LINE
8
0
10
752.61
20
355.71
30
0
11
759.09
21
656.21
31
0
0
LINE
8
0
10
609.85
20
304.77
30
0
11
723.86
21
941.19
31
0
0
LINE
8
0
10
207.96
20
929.43
30
0
11
242.86
21
511.70
31
0
0
LINE
8
0
10
267.03
20
824.73
30
0
11
929.52
21
348.06
31
0
0
LINE
8
0
10
425.52
20
289.81
30
0
11
334.82
21
542.57
31
0
0
LINE
8
0
10
833.67
20
220.99
30
0
11
655.80
21
96.98
31
0
0
LINE
8
0
10
16.03
20
411.15
30
0
11
799.28
21
115.12
31
0
0
LINE
8
0
10
701.05
20
460.25
30
0
11
264.15
21
606.35
31
0
0
LINE
8
0
10
329.33
20
272.43
30
0
11
489.85
21
811.83
31
0
0
LINE
8
0
10
612.40
20
459.68
30
0
11
594.50
21
199.18
31
0
0
LINE
8
0
10
393.05
20
72.52
30
0
11
226.76
21
255.04
31
0
0
LINE
8
0
10
992.52
20
988.88
30
0
11
39.97
21
774.44
31
0
0
LINE
8
0
10
603.85
20
691.37
30
0
11
940.00
21
620.50
31
0
0
LINE
8
0
10
242.35
20
451.36
30
0
11
110.00
21
946.60
31
0
0
LINE
8
0
10
3.70
20
823.21
30
0
11
222.88
21
828.96
31
0
0
LINE
8
0
10
676.01
20
575.99
30
0
11
237.50
21
462.90
31
0
0
LINE
8
0
10
456.76
20
66.49
30
0
11
280.07
21
744.27
31
0
0
LINE
8
0
10
719.48
20
252.63
30
0
11
152.21
21
808.49
31
0
0
LINE
8
0
10
21.82
20
145.02
30
0
11
132.71
21
347.72
31
0
0
LINE
8
0
10
536.32
20
965.55
30
0
11
791.18
21
991.04
31
0
0
LINE
8
0
10
594.51
20
88.70
30
0
11
467.73
21
960.31
31
0
0
LINE
8
0
10
765.23
20
974.07
30
0
11
614.90
21
372.40
31
0
0
LINE
8
0
10
898.30
20
316.78
30
0
11
93.25
21
602.82
31
0
0
LINE
8
0
10
683.47
20
909.82
30
0
11
272.93
21
822.22
31
0
0
LINE
8
0
10
22.32
20
455.31
30
0
11
306.49
21
183.11
31
0
0
LINE
8
0
10
187.37
20
228.45
30
0
11
300.38
21
135.51
31
0
0
LINE
8
0
10
980.02
20
395.12
30
0
11
988.80
21
919.42
31
0
0
LINE
8
0
10
82.60
20
373.98
30
0
11
319.91
21
110.57
31
0
0
LINE
8
0
10
561.92
20
641.09
30
0
11
169.89
21
43.91
31
0
0
LINE
8
0
10
242.94
20
610.55
30
0
11
1.51
21
74.55
31
0
0
LINE
8
0
10
360.70
20
20.57
30
0
11
334.69
21
853.53
31
0
0
LINE
8
0
10
83.70
20
737.03
30
0
11
411.29
21
49.25
31
0
0
LINE
8
0
10
554.77
20
206.20
30
0
11
850.43
21
176.14
31
0
0
LINE
8
0
10
943.31
20
553.19
30
0
11
720.83
21
495.94
31
0
0
LINE
8
0
10
834.99
20
723.96
30
0
11
900.44
21
694.01
31
0
0
LINE
8
0
10
343.92
20
914.22
30
0
11
817.89
21
407.34
31
0
0
LINE
8
0
10
968.76
20
600.37
30
0
11
662.34
21
194.38
31
0
0
LINE
8
0
10
109.48
20
496.60
30
0
11
415.86
21
743.69
31
0
0
LINE
8
0
10
99.97
20
390.12
30
0
11
438.74
21
393.53
31
0
0
LINE
8
0
10
391.35
20
125.80
30
0
11
382.89
21
632.24
31
0
0
LINE
8
0
10
38.04
20
710.03
30
0
11
646.15
21
781.44
31
0
0
LINE
8
0
10
301.83
20
230.56
30
0
11
246.29
21
333.47
31
0
0
LINE
8
0
10
776.18
20
314.35
30
0
11
29.47
21
301.04
31
0
0
LINE
8
0
10
463.87
20
852.93
30
0
11
832.63
21
941.80
31
0
0
LINE
8
0
10
682.74
20
618.80
30
0
11
712.71
21
507.73
31
0
0
LINE
8
0
10
178.76
20
691.66
30
0
11
74.48
21
387.09
31
0
0
LINE
8
0
10
726.13
20
444.80
30
0
11
204.38
21
166.26
31
0
0
LINE
8
0
10
521.54
20
3.53
30
0
11
760.58
21
351.66
31
0
0
LINE
8
0
10
666.58
20
55.07
30
0
11
979.33
21
967.33
31
0
0
LINE
8
0
10
664.54
20
796.42
30
0
11
588.04
21
883.69
31
0
0
LINE
8
0
10
969.83
20
557.91
30
0
11
276.73
21
478.66
31
0
0
LINE
8
0
10
599.97
20
36.16
30
0
11
404.00
21
352.16
31
0
0
LINE
8
0
10
892.94
20
168.57
30
0
11
75.24
21
761.91
31
0
0
LINE
8
0
10
713.27
20
939.71
30
0
11
476.61
21
369.07
31
0
0
LINE
8
0
10
701.76
20
102.52
30
0
11
990.89
21
114.07
31
0
0
LINE
8
0
10
30.37
20
83.84
30
0
11
268.57
21
119.98
31
0
0
LINE
8
0
10
470.55
20
507.60
30
0
11
334.80
21
801.18
31
0
0
LINE
8
0
10
642.46
20
407.97
30
0
11
202.00
21
447.52
31
0
0
LINE
8
0
10
496.39
20
381.61
30
0
11
867.08
21
899.55
31
0
0
LINE
8
0
10
214.64
20
335.61
30
0
11
671.26
21
771.32
31
0
0
LINE
8
0
10
967.97
20
92.30
30
0
11
304.24
21
679.42
31
0
0
LINE
8
0
10
336.09
20
153.19
30
0
11
859.93
21
886.79
31
0
0
LINE
8
0
10
960.22
20
769.87
30
0
11
681.11
21
388.84
31
0
0
LINE
8
0
10
635.76
20
656.68
30
0
11
809.66
21
228.97
31
0
0
LINE
8
0
10
961.79
20
461.43
30
0
11
566.04
21
472.26
31
0
0
LINE
8
0
10
362.26
20
411.95
30
0
11
214.61
21
513.54
31
0
0
LINE
8
0
10
661.04
20
135.96
30
0
11
29.49
21
628.59
31
0
0
LINE
8
0
10
210.82
20
370.62
30
0
11
927.84
21
813.69
31
0
0
LINE
8
0
10
760.01
20
327.65
30
0
11
150.34
21
654.00
31
0
0
LINE
8
0
10
977.33
20
391.92
30
0
11
151.25
21
951.08
31
0
0
LINE
8
0
10
285.54
20
410.99
30
0
11
364.60
21
688.57
31
0
0
LINE
8
0
10
28.96
20
259.08
30
0
11
41.03
21
342.59
31
0
0
LINE
8
0
10
950.38
20
941.34
30
0
11
408.66
21
936.48
31
0
0
LINE
8
0
10
900.26
20
815.98
30
0
11
187.77
21
672.12
31
0
0
LINE
8
0
10
861.97
20
485.02
30
0
11
381.75
21
743.18
31
0
0
LINE
8
0
10
694.68
20
564.36
30
0
11
247.59
21
826.31
31
0
0
LINE
8
0
10
958.85
20
183.22
30
0
11
391.99
21
213.74
31
0
0
LINE
8
0
10
295.46
20
984.21
30
0
11
45.88
21
554.93
31
0
0
LINE
8
0
10
278.05
20
240.58
30
0
11
921.98
21
28.85
31
0
0
LINE
8
0
10
992.62
20
778.20
30
0
11
228.94
21
16.55
31
0
0
LINE
8
0
10
815.44
20
951.58
30
0
11
576.57
21
126.37
31
0
0
LINE
8
0
10
331.03
20
765.87
30
0
11
286.33
21
102.54
31
0
0
LINE
8
0
10
76.33
20
465.40
30
0
11
180.20
21
187.98
31
0
0
LINE
8
0
10
836.88
20
777.35
30
0
11
953.24
21
751.53
31
0
0
LINE
8
0
10
398.42
20
432.86
30
0
11
380.87
21
40.80
31
0
0
LINE
8
0
10
159.45
20
242.08
30
0
11
294.89
21
654.27
31
0
0
LINE
8
0
10
96.90
20
471.42
30
0
11
873.17
21
722.21
31
0
0
LINE
8
0
10
806.59
20
954.31
30
0
11
580.89
21
856.60
31
0
0
LINE
8
0
10
935.28
20
741.17
30
0
11
468.54
21
825.88
31
0
0
LINE
8
0
10
258.89
20
911.47
30
0
11
623.93
21
410.34
31
0
0
LINE
8
0
10
336.56
20
754.26
30
0
11
205.85
21
126.41
31
0
0
LINE
8
0
10
688.32
20
764.41
30
0
11
370.50
21
60.45
31
0
0
LINE
8
0
10
849.56
20
44.50
30
0
11
560.93
21
893.60
31
0
0
LINE
8
0
10
645.52
20
806.25
30
0
11
819.69
21
254.57
31
0
0
LINE
8
0
10
781.33
20
623.55
30
0
11
943.71
21
575.44
31
0
0
LINE
8
0
10
452.62
20
113.12
30
0
11
533.77
21
725.46
31
0
0
LINE
8
0
10
634.01
20
251.44
30
0
11
829.71
21
749.39
31
0
0
LINE
8
0
10
539.63
20
405.28
30
0
11
452.82
21
63.16
31
0
0
LINE
8
0
10
657.94
20
192.48
30
0
11
422.03
21
839.69
31
0
0
LINE
8
0
10
430.03
20
87.67
30
0
11
703.66
21
659.79
31
0
0
LINE
8
0
10
202.04
20
560.79
30
0
11
661.35
21
320.90
31
0
0
LINE
8
0
10
691.98
20
212.74
30
0
11
582.77
21
779.70
31
0
0
LINE
8
0
10
347.74
20
372.81
30
0
11
595.48
21
596.06
31
0
0
LINE
8
0
10
474.74
20
255.70
30
0
11
657.25
21
740.53
31
0
0
LINE
8
0
10
763.02
20
318.94
30
0
11
735.83
21
90.28
31
0
0
LINE
8
0
10
573.46
20
679.71
30
0
11
816.47
21
587.39
31
0
0
LINE
8
0
10
946.63
20
879.76
30
0
11
593.84
21
198.19
31
0
0
LINE
8
0
10
74.90
20
563.26
30
0
11
262.38
21
214.42
31
0
0
LINE
8
0
10
125.62
20
307.97
30
0
11
573.44
21
559.89
31
0
0
LINE
8
0
10
672.65
20
48.45
30
0
11
705.85
21
621.49
31
0
0
LINE
8
0
10
768.88
20
112.38
30
0
11
478.04
21
87.43
31
0
0
LINE
8
0
10
620.29
20
743.07
30
0
11
803.19
21
222.02
31
0
0
LINE
8
0
10
624.39
20
420.51
30
0
11
177.13
21
795.81
31
0
0
LINE
8
0
10
807.72
20
245.01
30
0
11
283.85
21
209.66
31
0
0
LINE
8
0
10
528.51
20
469.90
30
0
11
879.90
21
735.17
31
0
0
LINE
8
0
10
561.50
20
303.42
30
0
11
614.90
21
69.70
31
0
0
LINE
8
0
10
833.32
20
791.42
30
0
11
501.94
21
629.23
31
0
0
LINE
8
0
10
77.05
20
169.77
30
0
11
594.86
21
429.61
31
0
0
LINE
8
0
10
214.90
20
541.11
30
0
11
70.70
21
458.85
31
0
0
LINE
8
0
10
399.99
20
956.29
30
0
11
952.62
21
668.34
31
0
0
LINE
8
0
10
356.79
20
789.87
30
0
11
481.51
21
662.61
31
0
0
LINE
8
0
10
763.65
20
610.39
30
0
11
140.09
21
155.99
31
0
0
LINE
8
0
10
77.64
20
549.14
30
0
11
496.55
21
980.06
31
0
0
LINE
8
0
10
314.03
20
568.08
30
0
11
48.73
21
513.18
31
0
0
LINE
8
0
10
922.96
20
375.96
30
0
11
978.05
21
129.73
31
0
0
LINE
8
0
10
822.85
20
93.16
30
0
11
442.15
21
685.54
31
0
0
LINE
8
0
10
41.16
20
972.62
30
0
11
587.10
21
70.10
31
0
0
LINE
8
0
10
121.04
20
841.42
30
0
11
841.86
21
541.85
31
0
0
LINE
8
0
10
757.45
20
105.27
30
0
11
262.00
21
73.12
31
0
0
LINE
8
0
10
726.40
20
736.52
30
0
11
300.13
21
980.95
31
0
0
LINE
8
0
10
676.02
20
555.66
30
0
11
301.84
21
825.85
31
0
0
LINE
8
0
10
746.23
20
114.23
30
0
11
464.75
21
132.33
31
0
0
LINE
8
0
10
947.07
20
414.20
30
0
11
359.94
21
759.32
31
0
0
LINE
8
0
10
580.61
20
999.51
30
0
11
319.73
21
526.10
31
0
0
LINE
8
0
10
19.99
20
904.42
30
0
11
909.31
21
122.95
31
0
0
LINE
8
0
10
512.74
20
789.37
30
0
11
812.62
21
510.93
31
0
0
LINE
8
0
10
952.88
20
902.02
30
0
11
610.20
21
424.00
31
0
0
LINE
8
0
10
631.45
20
332.87
30
0
11
350.53
21
725.70
31
0
0
LINE
8
0
10
150.04
20
13.45
30
0
11
372.74
21
330.46
31
0
0
LINE
8
0
10
994.71
20
448.60
30
0
11
201.06
21
437.69
31
0
0
LINE
8
0
10
925.46
20
577.64
30
0
11
19.51
21
992.85
31
0
0
LINE
8
0
10
155.56
20
353.46
30
0
11
30.40
21
280.86
31
0
0
LINE
8
0
10
222.63
20
1.48
30
0
11
111.53
21
891.15
31
0
0
LINE
8
0
10
998.45
20
375.39
30
0
11
421.54
21
814.44
31
0
0
LINE
8
0
10
987.09
20
147.48
30
0
11
941.12
21
22.26
31
0
0
LINE
8
0
10
287.51
20
320.54
30
0
11
576.94
21
611.62
31
0
0
LINE
8
0
10
90.64
20
970.39
30
0
11
291.95
21
665.10
31
0
0
LINE
8
0
10
119.64
20
649.70
30
0
11
933.10
21
478.78
31
0
0
LINE
8
0
10
880.59
20
755.87
30
0
11
500.04
21
288.29
31
0
0
LINE
8
0
10
677.38
20
635.86
30
0
11
512.29
21
203.95
31
0
0
LINE
8
0
10
563.22
20
484.98
30
0
11
309.10
21
544.77
31
0
0
LINE
8
0
10
451.52
20
432.32
30
0
11
128.79
21
552.81
31
0
0
LINE
8
0
10
557.80
20
516.66
30
0
11
173.28
21
27.18
31
0
0
LINE
8
0
10
644.36
20
310.30
30
0
11
75.79
21
283.52
31
0
0
LINE
8
0
10
781.32
20
361.86
30
0
11
984.27
21
915.95
31
0
0
LINE
8
0
10
62.97
20
854.08
30
0
11
802.63
21
448.92
31
0
0
LINE
8
0
10
476.31
20
620.64
30
0
11
173.97
21
563.92
31
0
0
LINE
8
0
10
838.10
20
166.45
30
0
11
209.25
21
929.49
31
0
0
LINE
8
0
10
160.91
20
412.22
30
0
11
612.78
21
261.29
31
0
0
LINE
8
0
10
928.69
20
186.65
30
0
11
984.91
21
418.99
31
0
0
LINE
8
0
10
345.09
20
878.50
30
0
11
419.16
21
7.05
31
0
0
LINE
8
0
10
133.12
20
441.62
30
0
11
634.08
21
686.53
31
0
0
LINE
8
0
10
491.50
20
116.81
30
0
11
690.86
21
796.13
31
0
0
LINE
8
0
10
32.46
20
846.62
30
0
11
705.77
21
489.06
31
0
0
LINE
8
0
10
419.30
20
602.62
30
0
11
503.84
21
672.58
31
0
0
LINE
8
0
10
7.78
20
900.00
30
0
11
461.98
21
999.72
31
0
0
LINE
8
0
10
195.60
20
205.82
30
0
11
488.68
21
804.97
31
0
0
LINE
8
0
10
996.75
20
865.94
30
0
11
67.06
21
515.02
31
0
0
LINE
8
0
10
200.21
20
536.31
30
0
11
91.76
21
646.89
31
0
0
LINE
8
0
10
756.24
20
90.22
30
0
11
91.33
21
902.22
31
0
0
LINE
8
0
10
460.02
20
34.09
30
0
11
143.97
21
643.67
31
0
0
LINE
8
0
10
966.30
20
856.08
30
0
11
497.50
21
379.11
31
0
0
LINE
8
0
10
267.05
20
908.40
30
0
11
397.74
21
242.18
31
0
0
LINE
8
0
10
594.12
20
270.26
30
0
11
642.75
21
776.29
31
0
0
LINE
8
0
10
684.50
20
936.34
30
0
11
9.88
21
232.07
31
0
0
LINE
8
0
10
859.70
20
79.46
30
0
11
466.17
21
742.47
31
0
0
LINE
8
0
10
874.08
20
300.47
30
0
11
83.17
21
946.01
31
0
0
LINE
8
0
10
907.99
20
10.78
30
0
11
151.77
21
628.91
31
0
0
LINE
8
0
10
766.14
20
892.94
30
0
11
406.78
21
741.27
31
0
0
LINE
8
0
10
510.39
20
802.20
30
0
11
349.32
21
27.65
31
0
0
LINE
8
0
10
579.16
20
61.94
30
0
11
331.63
21
476.10
31
0
0
LINE
8
0
10
649.86
20
321.08
30
0
11
994.25
21
506.81
31
0
0
LINE
8
0
10
669.62
20
987.23
30
0
11
497.67
21
516.45
31
0
0
LINE
8
0
10
670.83
20
177.35
30
0
11
292.92
21
716.67
31
0
0
LINE
8
0
10
856.46
20
945.30
30
0
11
663.01
21
603.54
31
0
0
LINE
8
0
10
260.69
20
926.95
30
0
11
237.07
21
806.86
31
0
0
LINE
8
0
10
534.54
20
947.51
30
0
11
978.15
21
446.29
31
0
0
LINE
8
0
10
752.00
20
81.06
30
0
11
448.30
21
64.37
31
0
0
LINE
8
0
10
116.32
20
307.43
30
0
11
574.27
21
613.18
31
0
0
LINE
8
0
10
63.83
20
592.31
30
0
11
708.21
21
852.41
31
0
0
LINE
8
0
10
612.76
20
864.50
30
0
11
284.59
21
122.32
31
0
0
LINE
8
0
10
719.22
20
271.32
30
0
11
162.50
21
99.83
31
0
0
LINE
8
0
10
189.81
20
516.00
30
0
11
219.68
21
773.23
31
0
0
LINE
8
0
10
466.32
20
860.29
30
0
11
78.30
21
314.76
31
0
0
LINE
8
0
10
155.90
20
436.31
30
0
11
482.55
21
169.30
31
0
0
LINE
8
0
10
925.00
20
744.79
30
0
11
903.69
21
487.80
31
0
0
LINE
8
0
10
144.25
20
620.41
30
0
11
559.60
21
570.08
31
0
0
LINE
8
0
10
697.06
20
338.72
30
0
11
673.05
21
813.17
31
0
0
LINE
8
0
10
591.60
20
73.28
30
0
11
586.21
21
733.52
31
0
0
LINE
8
0
10
442.90
20
214.91
30
0
11
184.35
21
980.91
31
0
0
LINE
8
0
10
240.53
20
819.56
30
0
11
986.83
21
232.58
31
0
0
LINE
8
0
10
511.86
20
333.75
30
0
11
867.08
21
48.78
31
0
0
LINE
8
0
10
279.90
20
435.91
30
0
11
173.30
21
932.31
31
0
0
LINE
8
0
10
286.13
20
791.25
30
0
11
226.56
21
198.37
31
0
0
LINE
8
0
10
92.39
20
747.75
30
0
11
450.94
21
448.72
31
0
0
LINE
8
0
10
212.40
20
847.69
30
0
11
336.73
21
237.23
31
0
0
LINE
8
0
10
211.26
20
708.05
30
0
11
820.43
21
875.36
31
0
0
LINE
8
0
10
123.27
20
12.30
30
0
11
681.49
21
872.46
31
0
0
LINE
8
0
10
629.81
20
453.16
30
0
11
795.54
21
592.02
31
0
0
LINE
8
0
10
548.23
20
745.45
30
0
11
603.82
21
366.63
31
0
0
LINE
8
0
10
734.02
20
741.27
30
0
11
564.54
21
335.22
31
0
0
LINE
8
0
10
214.20
20
154.91
30
0
11
711.58
21
869.82
31
0
0
LINE
8
0
10
411.21
20
20.56
30
0
11
796.23
21
551.05
31
0
0
LINE
8
0
10
376.45
20
500.71
30
0
11
803.21
21
394.76
31
0
0
LINE
8
0
10
800.33
20
632.12
30
0
11
523.70
21
928.41
31
0
0
LINE
8
0
10
473.08
20
783.46
30
0
11
833.40
21
865.78
31
0
0
LINE
8
0
10
781.07
20
898.17
30
0
11
408.00
21
524.26
31
0
0
LINE
8
0
10
459.20
20
290.35
30
0
11
360.46
21
669.12
31
0
0
LINE
8
0
10
560.52
20
130.49
30
0
11
446.59
21
1.16
31
0
0
LINE
8
0
10
698.71
20
4.37
30
0
11
288.88
21
403.18
31
0
0
LINE
8
0
10
610.38
20
33.58
30
0
11
303.57
21
77.38
31
0
0
LINE
8
0
10
246.12
20
592.46
30
0
11
57.27
21
828.01
31
0
0
LINE
8
0
10
414.16
20
723.50
30
0
11
231.09
21
49.66
31
0
0
LINE
8
0
10
524.73
20
474.24
30
0
11
866.49
21
504.97
31
0
0
LINE
8
0
10
968.22
20
717.96
30
0
11
155.24
21
92.73
31
0
0
LINE
8
0
10
802.12
20
847.87
30
0
11
898.25
21
455.93
31
0
0
LINE
8
0
10
109.01
20
378.39
30
0
11
650.97
21
48.57
31
0
0
LINE
8
0
10
416.07
20
302.62
30
0
11
426.32
21
826.32
31
0
0
LINE
8
0
10
253.96
20
7.68
30
0
11
68.34
21
730.98
31
0
0
LINE
8
0
10
863.47
20
905.76
30
0
11
224.98
21
901.00
31
0
0
LINE
8
0
10
631.33
20
261.83
30
0
11
865.92
21
330.35
31
0
0
LINE
8
0
10
608.91
20
708.10
30
0
11
248.10
21
210.37
31
0
0
LINE
8
0
10
672.95
20
483.19
30
0
11
332.64
21
197.71
31
0
0
LINE
8
0
10
348.58
20
69.95
30
0
11
966.86
21
117.54
31
0
0
LINE
8
0
10
318.93
20
597.03
30
0
11
537.86
21
210.63
31
0
0
LINE
8
0
10
779.93
20
984.42
30
0
11
467.19
21
457.06
31
0
0
LINE
8
0
10
778.68
20
106.71
30
0
11
752.55
21
659.67
31
0
0
LINE
8
0
10
146.66
20
905.67
30
0
11
577.64
21
201.04
31
0
0
LINE
8
0
10
227.60
20
557.07
30
0
11
557.31
21
799.27
31
0
0
LINE
8
0
10
308.04
20
373.59
30
0
11
829.72
21
558.82
31
0
0
LINE
8
0
10
543.55
20
952.60
30
0
11
835.59
21
716.09
31
0
0
LINE
8
0
10
922.74
20
801.47
30
0
11
579.11
21
384.46
31
0
0
LINE
8
0
10
589.47
20
491.79
30
0
11
627.78
21
410.24
31
0
0
LINE
8
0
10
819.98
20
907.19
30
0
11
687.36
21
336.85
31
0
0
LINE
8
0
10
892.30
20
633.84
30
0
11
393.72
21
701.96
31
0
0
LINE
8
0
10
627.11
20
550.73
30
0
11
572.22
21
105.10
31
0
0
LINE
8
0
10
102.98
20
859.04
30
0
11
749.82
21
388.94
31
0
0
LINE
8
0
10
573.15
20
869.70
30
0
11
118.67
21
626.91
31
0
0
LINE
8
0
10
711.58
20
578.84
30
0
11
209.55
21
15.97
31
0
0
LINE
8
0
10
504.77
20
162.03
30
0
11
392.76
21
79.82
31
0
0
LINE
8
0
10
471.35
20
217.23
30
0
11
818.54
21
446.66
31
0
0
LINE
8
0
10
748.70
20
203.48
30
0
11
317.64
21
480.15
31
0
0
LINE
8
0
10
485.73
20
520.57
30
0
11
48.92
21
78.21
31
0
0
LINE
8
0
10
223.53
20
328.10
30
0
11
118.72
21
119.05
31
0
0
LINE
8
0
10
433.87
20
470.77
30
0
11
938.12
21
465.51
31
0
0
LINE
8
0
10
755.38
20
329.92
30
0
11
146.63
21
894.53
31
0
0
LINE
8
0
10
394.25
20
162.50
30
0
11
328.13
21
205.59
31
0
0
LINE
8
0
10
904.18
20
69.55
30
0
11
61.69
21
516.27
31
0
0
LINE
8
0
10
726.89
20
519.27
30
0
11
51.86
21
145.21
31
0
0
LINE
8
0
10
279.60
20
991.54
30
0
11
40.38
21
751.93
31
0
0
LINE
8
0
10
123.19
20
687.82
30
0
11
781.14
21
180.30
31
0
0
LINE
8
0
10
948.01
20
809.32
30
0
11
258.84
21
494.40
31
0
0
LINE
8
0
10
926.17
20
694.49
30
0
11
756.90
21
424.47
31
0
0
LINE
8
0
10
140.34
20
579.79
30
0
11
328.38
21
652.02
31
0
0
LINE
8
0
10
243.80
20
831.84
30
0
11
446.18
21
807.69
31
0
0
LINE
8
0
10
819.30
20
11.94
30
0
11
758.91
21
451.63
31
0
0
LINE
8
0
10
417.75
20
592.29
30
0
11
577.95
21
176.05
31
0
0
LINE
8
0
10
863.96
20
773.46
30
0
11
330.45
21
985.51
31
0
0
LINE
8
0
10
887.83
20
327.47
30
0
11
293.09
21
587.30
31
0
0
LINE
8
0
10
589.97
20
186.48
30
0
11
4.62
21
480.48
31
0
0
LINE
8
0
10
702.75
20
448.46
30
0
11
292.62
21
933.42
31
0
0
LINE
8
0
10
536.83
20
716.84
30
0
11
336.98
21
366.39
31
0
0
LINE
8
0
10
488.50
20
726.01
30
0
11
552.79
21
736.00
31
0
0
LINE
8
0
10
871.48
20
829.32
30
0
11
641.83
21
979.33
31
0
0
LINE
8
0
10
974.23
20
357.31
30
0
11
173.43
21
843.31
31
0
0
LINE
8
0
10
982.71
20
462.13
30
0
11
95.88
21
955.97
31
0
0
LINE
8
0
10
662.02
20
999.71
30
0
11
414.08
21
348.08
31
0
0
LINE
8
0
10
789.49
20
930.35
30
0
11
333.21
21
408.15
31
0
0
LINE
8
0
10
913.88
20
69.32
30
0
11
901.13
21
170.66
31
0
0
LINE
8
0
10
81.36
20
255.60
30
0
11
814.36
21
625.76
31
0
0
LINE
8
0
10
997.73
20
986.87
30
0
11
806.44
21
676.91
31
0
0
LINE
8
0
10
276.72
20
684.24
30
0
11
73.32
21
977.72
31
0
0
LINE
8
0
10
821.96
20
604.57
30
0
11
813.56
21
93.61
31
0
0
LINE
8
0
10
708.38
20
479.97
30
0
11
283.89
21
338.90
31
0
0
LINE
8
0
10
558.41
20
41.16
30
0
11
915.00
21
512.12
31
0
0
LINE
8
0
10
106.62
20
758.03
30
0
11
756.51
21
114.10
31
0
0
LINE
8
0
10
49.07
20
822.26
30
0
11
307.02
21
717.37
31
0
0
LINE
8
0
10
29.49
20
247.19
30
0
11
238.28
21
834.62
31
0
0
LINE
8
0
10
435.44
20
900.35
30
0
11
273.26
21
326.45
31
0
0
LINE
8
0
10
3.95
20
252.88
30
0
11
780.43
21
216.98
31
0
0
LINE
8
0
10
644.36
20
497.82
30
0
11
90.78
21
898.81
31
0
0
LINE
8
0
10
7.18
20
250.67
30
0
11
839.79
21
4.42
31
0
0
LINE
8
0
10
560.09
20
972.09
30
0
11
691.90
21
160.67
31
0
0
LINE
8
0
10
870.28
20
916.40
30
0
11
595.32
21
217.49
31
0
0
LINE
8
0
10
293.68
20
752.67
30
0
11
454.31
21
878.06
31
0
0
LINE
8
0
10
993.31
20
70.71
30
0
11
191.68
21
672.65
31
0
0
LINE
8
0
10
94.50
20
63.22
30
0
11
202.12
21
323.84
31
0
0
LINE
8
0
10
951.23
20
103.72
30
0
11
736.52
21
68.37
31
0
0
LINE
8
0
10
523.72
20
46.68
30
0
11
966.02
21
207.96
31
0
0
LINE
8
0
10
857.35
20
614.92
30
0
11
29.74
21
673.79
31
0
0
LINE
8
0
10
508.01
20
424.92
30
0
11
73.01
21
535.27
31
0
0
LINE
8
0
10
234.24
20
617.31
30
0
11
402.30
21
10.24
31
0
0
LINE
8
0
10
309.56
20
893.90
30
0
11
370.93
21
754.23
31
0
0
LINE
8
0
10
675.63
20
40.94
30
0
11
982.82
21
744.27
31
0
0
LINE
8
0
10
729.31
20
771.98
30
0
11
643.36
21
101.47
31
0
0
LINE
8
0
10
317.13
20
728.62
30
0
11
976.00
21
974.41
31
0
0
LINE
8
0
10
170.33
20
627.92
30
0
11
171.85
21
909.11
31
0
0
LINE
8
0
10
467.43
20
203.18
30
0
11
848.41
21
768.14
31
0
0
LINE
8
0
10
118.91
20
460.43
30
0
11
604.54
21
225.03
31
0
0
LINE
8
0
10
0.99
20
473.00
30
0
11
530.49
21
748.00
31
0
0
LINE
8
0
10
214.39
20
447.53
30
0
11
248.10
21
401.18
31
0
0
LINE
8
0
10
331.14
20
776.45
30
0
11
464.69
21
897.05
31
0
0
LINE
8
0
10
975.77
20
423.29
30
0
11
161.55
21
200.38
31
0
0
LINE
8
0
10
770.88
20
936.09
30
0
11
28.00
21
859.67
31
0
0
LINE
8
0
10
44.41
20
337.14
30
0
11
737.23
21
146.74
31
0
0
LINE
8
0
10
971.63
20
439.15
30
0
11
358.33
21
565.84
31
0
0
LINE
8
0
10
186.55
20
267.08
30
0
11
695.23
21
883.46
31
0
0
LINE
8
0
10
357.12
20
509.53
30
0
11
717.12
21
234.20
31
0
0
LINE
8
0
10
418.20
20
973.08
30
0
11
771.58
21
579.08
31
0
0
LINE
8
0
10
968.44
20
558.01
30
0
11
596.44
21
802.58
31
0
0
LINE
8
0
10
634.18
20
637.28
30
0
11
197.39
21
224.52
31
0
0
LINE
8
0
10
520.57
20
590.12
30
0
11
334.49
21
257.57
31
0
0
LINE
8
0
10
130.03
20
630.97
30
0
11
572.51
21
56.35
31
0
0
LINE
8
0
10
491.50
20
614.90
30
0
11
186.58
21
308.67
31
0
0
LINE
8
0
10
55.28
20
518.52
30
0
11
868.60
21
796.34
31
0
0
LINE
8
0
10
847.99
20
599.53
30
0
11
6.00
21
343.68
31
0
0
LINE
8
0
10
159.98
20
255.22
30
0
11
111.72
21
220.12
31
0
0
LINE
8
0
10
513.45
20
567.26
30
0
11
997.08
21
85.90
31
0
0
LINE
8
0
10
410.75
20
360.06
30
0
11
699.01
21
318.79
31
0
0
LINE
8
0
10
900.23
20
520.61
30
0
11
870.92
21
639.62
31
0
0
LINE
8
0
10
196.90
20
418.91
30
0
11
805.35
21
367.56
31
0
0
LINE
8
0
10
683.40
20
545.34
30
0
11
551.91
21
607.22
31
0
0
LINE
8
0
10
597.14
20
136.97
30
0
11
766.45
21
482.03
31
0
0
LINE
8
0
10
461.18
20
727.67
30
0
11
121.86
21
742.58
31
0
0
LINE
8
0
10
542.79
20
551.93
30
0
11
810.17
21
325.75
31
0
0
LINE
8
0
10
815.67
20
573.23
30
0
11
496.79
21
112.66
31
0
0
LINE
8
0
10
108.33
20
91.48
30
0
11
346.67
21
6.18
31
0
0
LINE
8
0
10
570.50
20
173.83
30
0
11
1.15
21
300.94
31
0
0
LINE
8
0
10
676.94
20
473.92
30
0
11
933.42
21
359.61
31
0
0
LINE
8
0
10
241.67
20
16.96
30
0
11
712.61
21
530.85
31
0
0
LINE
8
0
10
222.25
20
999.89
30
0
11
132.21
21
264.11
31
0
0
LINE
8
0
10
211.30
20
333.39
30
0
11
966.91
21
565.75
31
0
0
LINE
8
0
10
64.66
20
60.54
30
0
11
279.59
21
435.75
31
0
0
LINE
8
0
10
698.36
20
656.54
30
0
11
764.92
21
82.79
31
0
0
LINE
8
0
10
953.25
20
98.53
30
0
11
171.00
21
410.72
31
0
0
LINE
8
0
10
683.82
20
92.54
30
0
11
423.75
21
835.16
31
0
0
LINE
8
0
10
919.67
20
549.52
30
0
11
159.06
21
160.00
31
0
0
LINE
8
0
10
391.48
20
54.48
30
0
11
537.40
21
952.68
31
0
0
LINE
8
0
10
886.38
20
869.83
30
0
11
378.15
21
176.79
31
0
0
LINE
8
0
10
393.36
20
30.71
30
0
11
471.24
21
931.08
31
0
0
LINE
8
0
10
928.29
20
148.77
30
0
11
255.42
21
708.01
31
0
0
LINE
8
0
10
872.50
20
226.46
30
0
11
29.87
21
49.43
31
0
0
LINE
8
0
10
918.54
20
599.76
30
0
11
714.48
21
532.14
31
0
0
LINE
8
0
10
699.62
20
334.39
30
0
11
22.63
21
365.71
31
0
0
LINE
8
0
10
143.49
20
68.46
30
0
11
833.05
21
42.73
31
0
0
LINE
8
0
10
748.10
20
482.24
30
0
11
787.86
21
52.33
31
0
0
LINE
8
0
10
311.62
20
562.69
30
0
11
248.79
21
66.32
31
0
0
LINE
8
0
10
266.65
20
240.04
30
0
11
934.95
21
824.61
31
0
0
LINE
8
0
10
312.89
20
912.89
30
0
11
720.04
21
440.18
31
0
0
LINE
8
0
10
486.24
20
895.85
30
0
11
233.70
21
208.32
31
0
0
LINE
8
0
10
215.10
20
838.62
30
0
11
586.51
21
475.09
31
0
0
LINE
8
0
10
931.82
20
854.15
30
0
11
338.07
21
434.62
31
0
0
LINE
8
0
10
658.47
20
555.42
30
0
11
424.70
21
763.31
31
0
0
LINE
8
0
10
857.57
20
188.52
30
0
11
6.49
21
411.82
31
0
0
LINE
8
0
10
520.59
20
145.16
30
0
11
10.09
21
264.77
31
0
0
LINE
8
0
10
372.29
20
575.34
30
0
11
439.08
21
510.45
31
0
0
LINE
8
0
10
612.34
20
343.94
30
0
11
243.55
21
409.50
31
0
0
LINE
8
0
10
736.19
20
256.72
30
0
11
315.91
21
563.22
31
0
0
LINE
8
0
10
92.11
20
758.49
30
0
11
982.57
21
975.35
31
0
0
LINE
8
0
10
428.25
20
892.48
30
0
11
407.73
21
54.26
31
0
0
LINE
8
0
10
338.17
20
138.52
30
0
11
123.40
21
656.80
31
0
0
LINE
8
0
10
982.99
20
575.78
30
0
11
412.75
21
306.88
31
0
0
LINE
8
0
10
16.30
20
550.00
30
0
11
318.38
21
256.73
31
0
0
LINE
8
0
10
867.62
20
864.16
30
0
11
14.22
21
522.76
31
0
0
LINE
8
0
10
207.08
20
491.58
30
0
11
468.99
21
929.19
31
0
0
LINE
8
0
10
707.76
20
987.19
30
0
11
46.13
21
617.98
31
0
0
LINE
8
0
10
392.73
20
797.78
30
0
11
647.24
21
206.51
31
0
0
LINE
8
0
10
93.32
20
588.28
30
0
11
9.36
21
142.39
31
0
0
LINE
8
0
10
512.91
20
334.74
30
0
11
368.49
21
859.27
31
0
0
LINE
8
0
10
24.11
20
525.30
30
0
11
254.30
21
501.19
31
0
0
LINE
8
0
10
973.32
20
331.33
30
0
11
793.50
21
778.72
31
0
0
LINE
8
0
10
139.80
20
464.71
30
0
11
750.41
21
776.20
31
0
0
LINE
8
0
10
77.05
20
165.60
30
0
11
449.67
21
871.86
31
0
0
LINE
8
0
10
681.57
20
950.79
30
0
11
839.55
21
31.45
31
0
0
ENDSEC
0
EOF
