0
SECTION
2
HEADER
9
$ACADVER
1
AC1015
9
$INSUNITS
70
4
0
ENDSEC
0
SECTION
2
TABLES
0
TABLE
2
LAYER
70
5
0
LAYER
2
STRUCTURE
70
0
62
7
0
LAYER
2
FLOORS
70
0
62
3
0
LAYER
2
WINDOWS
70
0
62
5
0
LAYER
2
BALCONY
70
0
62
1
0
ENDTAB
0
ENDSEC
0
SECTION
2
ENTITIES
0
LINE
8
STRUCTURE
10
0.0
20
0.0
30
0.0
11
1000.0
21
0.0
31
0.0
0
LINE
8
STRUCTURE
10
1000.0
20
0.0
30
0.0
11
1000.0
21
600.0
31
0.0
0
LINE
8
STRUCTURE
10
1000.0
20
600.0
30
0.0
11
0.0
21
600.0
31
0.0
0
LINE
8
STRUCTURE
10
0.0
20
600.0
30
0.0
11
0.0
21
0.0
31
0.0
0
LINE
8
STRUCTURE
10
0.0
20
0.0
30
0.0
11
0.0
21
0.0
31
5600.0
0
LINE
8
STRUCTURE
10
1000.0
20
0.0
30
0.0
11
1000.0
21
0.0
31
5600.0
0
LINE
8
STRUCTURE
10
1000.0
20
600.0
30
0.0
11
1000.0
21
600.0
31
5600.0
0
LINE
8
STRUCTURE
10
0.0
20
600.0
30
0.0
11
0.0
21
600.0
31
5600.0
0
LINE
8
STRUCTURE
10
0.0
20
0.0
30
5600.0
11
1000.0
21
0.0
31
5600.0
0
LINE
8
STRUCTURE
10
1000.0
20
0.0
30
5600.0
11
1000.0
21
600.0
31
5600.0
0
LINE
8
STRUCTURE
10
1000.0
20
600.0
30
5600.0
11
0.0
21
600.0
31
5600.0
0
LINE
8
STRUCTURE
10
0.0
20
600.0
30
5600.0
11
0.0
21
0.0
31
5600.0
0
LINE
8
FLOORS
10
0.0
20
0.0
30
280.0
11
1000.0
21
0.0
31
280.0
0
LINE
8
FLOORS
10
1000.0
20
0.0
30
280.0
11
1000.0
21
600.0
31
280.0
0
LINE
8
FLOORS
10
1000.0
20
600.0
30
280.0
11
0.0
21
600.0
31
280.0
0
LINE
8
FLOORS
10
0.0
20
600.0
30
280.0
11
0.0
21
0.0
31
280.0
0
LINE
8
FLOORS
10
0.0
20
0.0
30
560.0
11
1000.0
21
0.0
31
560.0
0
LINE
8
FLOORS
10
1000.0
20
0.0
30
560.0
11
1000.0
21
600.0
31
560.0
0
LINE
8
FLOORS
10
1000.0
20
600.0
30
560.0
11
0.0
21
600.0
31
560.0
0
LINE
8
FLOORS
10
0.0
20
600.0
30
560.0
11
0.0
21
0.0
31
560.0
0
LINE
8
FLOORS
10
0.0
20
0.0
30
840.0
11
1000.0
21
0.0
31
840.0
0
LINE
8
FLOORS
10
1000.0
20
0.0
30
840.0
11
1000.0
21
600.0
31
840.0
0
LINE
8
FLOORS
10
1000.0
20
600.0
30
840.0
11
0.0
21
600.0
31
840.0
0
LINE
8
FLOORS
10
0.0
20
600.0
30
840.0
11
0.0
21
0.0
31
840.0
0
LINE
8
FLOORS
10
0.0
20
0.0
30
1120.0
11
1000.0
21
0.0
31
1120.0
0
LINE
8
FLOORS
10
1000.0
20
0.0
30
1120.0
11
1000.0
21
600.0
31
1120.0
0
LINE
8
FLOORS
10
1000.0
20
600.0
30
1120.0
11
0.0
21
600.0
31
1120.0
0
LINE
8
FLOORS
10
0.0
20
600.0
30
1120.0
11
0.0
21
0.0
31
1120.0
0
LINE
8
FLOORS
10
0.0
20
0.0
30
1400.0
11
1000.0
21
0.0
31
1400.0
0
LINE
8
FLOORS
10
1000.0
20
0.0
30
1400.0
11
1000.0
21
600.0
31
1400.0
0
LINE
8
FLOORS
10
1000.0
20
600.0
30
1400.0
11
0.0
21
600.0
31
1400.0
0
LINE
8
FLOORS
10
0.0
20
600.0
30
1400.0
11
0.0
21
0.0
31
1400.0
0
LINE
8
FLOORS
10
0.0
20
0.0
30
1680.0
11
1000.0
21
0.0
31
1680.0
0
LINE
8
FLOORS
10
1000.0
20
0.0
30
1680.0
11
1000.0
21
600.0
31
1680.0
0
LINE
8
FLOORS
10
1000.0
20
600.0
30
1680.0
11
0.0
21
600.0
31
1680.0
0
LINE
8
FLOORS
10
0.0
20
600.0
30
1680.0
11
0.0
21
0.0
31
1680.0
0
LINE
8
FLOORS
10
0.0
20
0.0
30
1960.0
11
1000.0
21
0.0
31
1960.0
0
LINE
8
FLOORS
10
1000.0
20
0.0
30
1960.0
11
1000.0
21
600.0
31
1960.0
0
LINE
8
FLOORS
10
1000.0
20
600.0
30
1960.0
11
0.0
21
600.0
31
1960.0
0
LINE
8
FLOORS
10
0.0
20
600.0
30
1960.0
11
0.0
21
0.0
31
1960.0
0
LINE
8
FLOORS
10
0.0
20
0.0
30
2240.0
11
1000.0
21
0.0
31
2240.0
0
LINE
8
FLOORS
10
1000.0
20
0.0
30
2240.0
11
1000.0
21
600.0
31
2240.0
0
LINE
8
FLOORS
10
1000.0
20
600.0
30
2240.0
11
0.0
21
600.0
31
2240.0
0
LINE
8
FLOORS
10
0.0
20
600.0
30
2240.0
11
0.0
21
0.0
31
2240.0
0
LINE
8
FLOORS
10
0.0
20
0.0
30
2520.0
11
1000.0
21
0.0
31
2520.0
0
LINE
8
FLOORS
10
1000.0
20
0.0
30
2520.0
11
1000.0
21
600.0
31
2520.0
0
LINE
8
FLOORS
10
1000.0
20
600.0
30
2520.0
11
0.0
21
600.0
31
2520.0
0
LINE
8
FLOORS
10
0.0
20
600.0
30
2520.0
11
0.0
21
0.0
31
2520.0
0
LINE
8
FLOORS
10
0.0
20
0.0
30
2800.0
11
1000.0
21
0.0
31
2800.0
0
LINE
8
FLOORS
10
1000.0
20
0.0
30
2800.0
11
1000.0
21
600.0
31
2800.0
0
LINE
8
FLOORS
10
1000.0
20
600.0
30
2800.0
11
0.0
21
600.0
31
2800.0
0
LINE
8
FLOORS
10
0.0
20
600.0
30
2800.0
11
0.0
21
0.0
31
2800.0
0
LINE
8
FLOORS
10
0.0
20
0.0
30
3080.0
11
1000.0
21
0.0
31
3080.0
0
LINE
8
FLOORS
10
1000.0
20
0.0
30
3080.0
11
1000.0
21
600.0
31
3080.0
0
LINE
8
FLOORS
10
1000.0
20
600.0
30
3080.0
11
0.0
21
600.0
31
3080.0
0
LINE
8
FLOORS
10
0.0
20
600.0
30
3080.0
11
0.0
21
0.0
31
3080.0
0
LINE
8
FLOORS
10
0.0
20
0.0
30
3360.0
11
1000.0
21
0.0
31
3360.0
0
LINE
8
FLOORS
10
1000.0
20
0.0
30
3360.0
11
1000.0
21
600.0
31
3360.0
0
LINE
8
FLOORS
10
1000.0
20
600.0
30
3360.0
11
0.0
21
600.0
31
3360.0
0
LINE
8
FLOORS
10
0.0
20
600.0
30
3360.0
11
0.0
21
0.0
31
3360.0
0
LINE
8
FLOORS
10
0.0
20
0.0
30
3640.0
11
1000.0
21
0.0
31
3640.0
0
LINE
8
FLOORS
10
1000.0
20
0.0
30
3640.0
11
1000.0
21
600.0
31
3640.0
0
LINE
8
FLOORS
10
1000.0
20
600.0
30
3640.0
11
0.0
21
600.0
31
3640.0
0
LINE
8
FLOORS
10
0.0
20
600.0
30
3640.0
11
0.0
21
0.0
31
3640.0
0
LINE
8
FLOORS
10
0.0
20
0.0
30
3920.0
11
1000.0
21
0.0
31
3920.0
0
LINE
8
FLOORS
10
1000.0
20
0.0
30
3920.0
11
1000.0
21
600.0
31
3920.0
0
LINE
8
FLOORS
10
1000.0
20
600.0
30
3920.0
11
0.0
21
600.0
31
3920.0
0
LINE
8
FLOORS
10
0.0
20
600.0
30
3920.0
11
0.0
21
0.0
31
3920.0
0
LINE
8
FLOORS
10
0.0
20
0.0
30
4200.0
11
1000.0
21
0.0
31
4200.0
0
LINE
8
FLOORS
10
1000.0
20
0.0
30
4200.0
11
1000.0
21
600.0
31
4200.0
0
LINE
8
FLOORS
10
1000.0
20
600.0
30
4200.0
11
0.0
21
600.0
31
4200.0
0
LINE
8
FLOORS
10
0.0
20
600.0
30
4200.0
11
0.0
21
0.0
31
4200.0
0
LINE
8
FLOORS
10
0.0
20
0.0
30
4480.0
11
1000.0
21
0.0
31
4480.0
0
LINE
8
FLOORS
10
1000.0
20
0.0
30
4480.0
11
1000.0
21
600.0
31
4480.0
0
LINE
8
FLOORS
10
1000.0
20
600.0
30
4480.0
11
0.0
21
600.0
31
4480.0
0
LINE
8
FLOORS
10
0.0
20
600.0
30
4480.0
11
0.0
21
0.0
31
4480.0
0
LINE
8
FLOORS
10
0.0
20
0.0
30
4760.0
11
1000.0
21
0.0
31
4760.0
0
LINE
8
FLOORS
10
1000.0
20
0.0
30
4760.0
11
1000.0
21
600.0
31
4760.0
0
LINE
8
FLOORS
10
1000.0
20
600.0
30
4760.0
11
0.0
21
600.0
31
4760.0
0
LINE
8
FLOORS
10
0.0
20
600.0
30
4760.0
11
0.0
21
0.0
31
4760.0
0
LINE
8
FLOORS
10
0.0
20
0.0
30
5040.0
11
1000.0
21
0.0
31
5040.0
0
LINE
8
FLOORS
10
1000.0
20
0.0
30
5040.0
11
1000.0
21
600.0
31
5040.0
0
LINE
8
FLOORS
10
1000.0
20
600.0
30
5040.0
11
0.0
21
600.0
31
5040.0
0
LINE
8
FLOORS
10
0.0
20
600.0
30
5040.0
11
0.0
21
0.0
31
5040.0
0
LINE
8
FLOORS
10
0.0
20
0.0
30
5320.0
11
1000.0
21
0.0
31
5320.0
0
LINE
8
FLOORS
10
1000.0
20
0.0
30
5320.0
11
1000.0
21
600.0
31
5320.0
0
LINE
8
FLOORS
10
1000.0
20
600.0
30
5320.0
11
0.0
21
600.0
31
5320.0
0
LINE
8
FLOORS
10
0.0
20
600.0
30
5320.0
11
0.0
21
0.0
31
5320.0
0
LINE
8
WINDOWS
10
100.0
20
0.0
30
50.0
11
100.0
21
0.0
31
200.0
0
LINE
8
WINDOWS
10
100.0
20
0.0
30
200.0
11
250.0
21
0.0
31
200.0
0
LINE
8
WINDOWS
10
250.0
20
0.0
30
200.0
11
250.0
21
0.0
31
50.0
0
LINE
8
WINDOWS
10
250.0
20
0.0
30
50.0
11
100.0
21
0.0
31
50.0
0
LINE
8
WINDOWS
10
400.0
20
0.0
30
50.0
11
400.0
21
0.0
31
200.0
0
LINE
8
WINDOWS
10
400.0
20
0.0
30
200.0
11
600.0
21
0.0
31
200.0
0
LINE
8
WINDOWS
10
600.0
20
0.0
30
200.0
11
600.0
21
0.0
31
50.0
0
LINE
8
WINDOWS
10
600.0
20
0.0
30
50.0
11
400.0
21
0.0
31
50.0
0
LINE
8
WINDOWS
10
750.0
20
0.0
30
50.0
11
750.0
21
0.0
31
200.0
0
LINE
8
WINDOWS
10
750.0
20
0.0
30
200.0
11
900.0
21
0.0
31
200.0
0
LINE
8
WINDOWS
10
900.0
20
0.0
30
200.0
11
900.0
21
0.0
31
50.0
0
LINE
8
WINDOWS
10
900.0
20
0.0
30
50.0
11
750.0
21
0.0
31
50.0
0
LINE
8
BALCONY
10
200.0
20
-100.0
30
0.0
11
800.0
21
-100.0
31
0.0
0
LINE
8
BALCONY
10
800.0
20
-100.0
30
0.0
11
800.0
21
0.0
31
0.0
0
LINE
8
BALCONY
10
200.0
20
0.0
30
0.0
11
200.0
21
-100.0
31
0.0
0
LINE
8
BALCONY
10
200.0
20
-100.0
30
0.0
11
200.0
21
-100.0
31
100.0
0
LINE
8
BALCONY
10
800.0
20
-100.0
30
0.0
11
800.0
21
-100.0
31
100.0
0
LINE
8
BALCONY
10
200.0
20
-100.0
30
100.0
11
800.0
21
-100.0
31
100.0
0
ENDSEC
0
EOF
